<?xml version="1.0" encoding="UTF-8" standalone="no"?>
<!-- Created with Inkscape (http://www.inkscape.org/) -->

<svg
   version="1.1"
   id="svg828"
   width="100.8"
   height="28.16"
   viewBox="0 0 100.8 28.16"
   sodipodi:docname="bond.svg"
   inkscape:version="1.1.1 (3bf5ae0d25, 2021-09-20)"
   xmlns:inkscape="http://www.inkscape.org/namespaces/inkscape"
   xmlns:sodipodi="http://sodipodi.sourceforge.net/DTD/sodipodi-0.dtd"
   xmlns="http://www.w3.org/2000/svg"
   xmlns:svg="http://www.w3.org/2000/svg">
  <defs
     id="defs832" />
  <sodipodi:namedview
     id="namedview830"
     pagecolor="#ffffff"
     bordercolor="#666666"
     borderopacity="1.0"
     inkscape:pageshadow="2"
     inkscape:pageopacity="0.0"
     inkscape:pagecheckerboard="0"
     showgrid="false"
     inkscape:zoom="10.595238"
     inkscape:cx="29.919102"
     inkscape:cy="17.885394"
     inkscape:window-width="1366"
     inkscape:window-height="745"
     inkscape:window-x="-8"
     inkscape:window-y="-8"
     inkscape:window-maximized="1"
     inkscape:current-layer="g834" />
  <g
     inkscape:groupmode="layer"
     inkscape:label="Image"
     id="g834">
    <path
       style="fill:#ff5555;stroke-width:0.32"
       d="M 6.9598364,26.865782 C 6.1985708,26.104516 6.174382,25.938314 6.174382,21.468936 c 0,-4.180677 0.061947,-4.690143 0.6632256,-5.454545 0.8669459,-1.102143 2.4573865,-1.149533 3.4409944,-0.102531 0.649368,0.691221 0.69578,1.05507 0.69578,5.454546 0,4.578237 -0.02261,4.736529 -0.785454,5.499376 -0.4319999,0.432 -1.1585459,0.785454 -1.6145459,0.785454 -0.4560001,0 -1.1825457,-0.353454 -1.6145457,-0.785454 z m 2.5745457,-5.454546 v -4.8 l -0.763811,-0.107997 c -0.4200963,-0.0594 -0.8858915,0.0846 -1.0351001,0.32 -0.149209,0.235398 -0.2734938,2.307197 -0.2761888,4.603997 -0.00516,4.397211 0.1877782,5.054497 1.4313629,4.876263 0.612272,-0.08775 0.643737,-0.326883 0.643737,-4.892263 z m 9.2654539,5.454546 c -0.761265,-0.761266 -0.785454,-0.927468 -0.785454,-5.396846 0,-4.180677 0.06195,-4.690143 0.663226,-5.454545 0.917208,-1.166041 2.55634,-1.166041 3.473548,0 0.601279,0.764402 0.663226,1.273868 0.663226,5.454545 0,4.469378 -0.02419,4.63558 -0.785454,5.396846 -0.432,0.432 -1.158546,0.785454 -1.614546,0.785454 -0.456,0 -1.182546,-0.353454 -1.614546,-0.785454 z m 2.384629,-0.938498 c 0.249026,-0.300059 0.339514,-1.881755 0.279182,-4.88 l -0.08926,-4.436048 h -0.96 -0.96 l -0.08945,4.46459 c -0.0492,2.455525 -0.01772,4.651525 0.06996,4.88 0.210606,0.54883 1.284946,0.531303 1.749577,-0.02854 z m 20.669917,-1.84861 c -0.352,-0.194205 -1.036,-0.720767 -1.52,-1.170138 l -0.88,-0.817038 v 1.019869 1.019869 h -1.92 -1.92 V 13.235967 2.3406968 l 2,0.09527 2,0.09527 0.09033,3.779757 0.09033,3.7797572 0.964224,-0.8113412 c 2.646541,-2.226919 6.514825,-1.599855 8.524163,1.3818002 2.14391,3.181347 1.723258,9.546818 -0.789962,11.954066 -1.704726,1.632843 -5.011027,2.361625 -6.639078,1.463399 z m 3.11353,-3.776592 c 1.209555,-0.951435 1.615609,-2.271445 1.473328,-4.789502 -0.101866,-1.802732 -0.271988,-2.385557 -0.887616,-3.040862 -0.950468,-1.011727 -2.586768,-1.347558 -3.90512,-0.801478 -2.619248,1.084928 -2.94656,7.065267 -0.481204,8.79207 0.952804,0.66737 2.850183,0.58738 3.800612,-0.160228 z m 11.932601,3.637784 C 52.737806,22.416187 50.84442,16.818122 52.949128,12.257008 54.30844,9.3112358 56.433857,8.0584238 60.094382,8.0452928 c 3.673558,-0.01318 6.02153,1.473177 7.350099,4.6528902 0.578205,1.383836 0.644458,4.922931 0.124643,6.657922 -1.190169,3.972429 -6.318777,6.175932 -10.668611,4.583761 z m 5.476416,-3.575746 c 1.989066,-1.611204 2.161923,-6.173868 0.304279,-8.031514 -0.702826,-0.702825 -1.128788,-0.84137 -2.586826,-0.84137 -1.475834,0 -1.880867,0.135412 -2.622077,0.876621 -0.752867,0.752869 -0.89448,1.192667 -1.003123,3.115381 -0.156938,2.777422 0.06288,3.691056 1.12487,4.675272 1.043597,0.967174 3.701645,1.081441 4.782877,0.20561 z m 27.317453,3.576938 c -1.675776,-0.72586 -2.804294,-1.970381 -3.519078,-3.880811 -0.70568,-1.886103 -0.853124,-5.232217 -0.315792,-7.166653 1.299465,-4.6781692 6.327811,-6.4484302 9.759072,-3.4357432 l 1.115798,0.9796842 v -4.0331492 -4.03315 h 1.919996 1.920002 v 10.8800002 10.88 h -1.920002 c -1.834662,0 -1.919996,-0.03556 -1.919996,-0.8 0,-0.91378 -0.37264,-1.027724 -0.97751,-0.2989 -1.169188,1.408784 -3.946807,1.825128 -6.06249,0.908722 z m 5.53368,-3.654826 c 1.115293,-0.87729 1.62129,-2.587363 1.420566,-4.800967 -0.279961,-3.087479 -1.899577,-4.57009 -4.330233,-3.963931 -1.754291,0.437487 -2.624013,1.933344 -2.624013,4.513116 0,2.221414 0.520592,3.592721 1.669373,4.397361 1.001417,0.701418 2.877369,0.630746 3.864307,-0.145579 z M 69.534382,16.131236 V 8.1312358 h 1.92 1.92 v 1.179869 1.1798692 l 0.88,-0.8207692 c 1.353197,-1.262116 2.315088,-1.640527 4.236448,-1.666631 2.133462,-0.02899 3.686029,0.768369 4.63223,2.3789852 0.583655,0.993494 0.66264,1.765277 0.76026,7.428677 l 0.108937,6.32 H 81.903518 79.814782 L 79.71458,18.342304 c -0.09913,-5.726922 -0.108726,-5.795831 -0.896432,-6.433024 -1.027712,-0.83134 -3.278924,-0.644728 -4.279609,0.354755 -0.637936,0.63717 -0.690954,1.061109 -0.784784,6.275268 l -0.100627,5.591933 H 71.593755 69.534382 Z M 1.795301,18.049002 c -1.0923828,-0.44013 -1.380919,-1.34095 -1.380919,-4.311274 0,-2.499014 0.073133,-2.828716 0.7854546,-3.541038 C 2.070959,9.3255678 2.5697042,9.2405728 3.724038,9.7665228 c 1.1198275,0.5102282 1.490344,1.5853192 1.490344,4.3243852 0,2.23653 -0.067169,2.476728 -0.9353846,3.344943 -0.9835652,0.983565 -1.3436915,1.07247 -2.4836964,0.613151 z m 1.755081,-1.341766 c 0.2319789,-0.231979 0.384,-1.356626 0.384,-2.840818 0,-2.660937 -0.3877562,-3.399933 -1.5846439,-3.020056 -0.5905612,0.187437 -0.6553561,0.468469 -0.6553561,2.842438 0,2.54819 0.2811973,3.402436 1.12,3.402436 0.1936,0 0.5248,-0.1728 0.736,-0.384 z m 9.445623,0.894957 c -0.814944,-0.700985 -0.904296,-0.994298 -1.009656,-3.314375 -0.132831,-2.925 0.40642,-4.4184922 1.713853,-4.7466372 2.252368,-0.565308 3.35418,0.8534722 3.35418,4.3191072 0,2.575281 -0.386381,3.652662 -1.490344,4.155661 -1.132872,0.516171 -1.568532,0.445978 -2.568033,-0.413756 z m 2.074377,-0.894957 c 0.59896,-0.59896 0.516738,-5.576591 -0.096,-5.81172 -1.162328,-0.446028 -1.44,0.09504 -1.44,2.805956 0,2.372135 0.288198,3.389764 0.96,3.389764 0.1056,0 0.3648,-0.1728 0.576,-0.384 z m 9.801675,0.925967 c -0.810435,-0.697106 -0.926598,-1.036173 -1.039495,-3.034168 -0.153968,-2.724873 0.311925,-4.322097 1.406134,-4.8206522 1.123811,-0.512042 1.52589,-0.464281 2.492531,0.2960792 0.803082,0.631704 0.843155,0.804921 0.843155,3.644549 0,2.373906 -0.114095,3.11616 -0.56,3.643129 -0.910935,1.076539 -2.087874,1.178064 -3.142325,0.271063 z M 26.78821,16.897 c 0.408656,-0.156816 0.506172,-0.738333 0.506172,-3.018436 0,-2.565216 -0.0601,-2.843274 -0.655356,-3.032202 -1.164644,-0.369643 -1.584644,0.368529 -1.584644,2.785094 0,2.961362 0.427632,3.766778 1.733828,3.265544 z M 6.9598364,11.825782 C 6.1976729,11.063618 6.174382,10.901876 6.174382,6.3712358 c 0,-4.53064 0.023291,-4.692382 0.7854544,-5.45454497 1.0688736,-1.06887398 2.4843267,-1.04450398 3.3513196,0.0577 0.601279,0.76440197 0.663226,1.27386797 0.663226,5.45454497 0,4.4693782 -0.02419,4.6355802 -0.785454,5.3968462 -0.4319999,0.432 -1.1585459,0.785454 -1.6145459,0.785454 -0.4560001,0 -1.1825457,-0.353454 -1.6145457,-0.785454 z M 9.5343821,6.3712358 v -4.8 l -0.763811,-0.107997 c -0.4200963,-0.0594 -0.8858915,0.0846 -1.0351001,0.32 -0.149209,0.235398 -0.2734938,2.307197 -0.2761888,4.603997 -0.00516,4.3972112 0.1877782,5.0544972 1.4313629,4.8762632 0.612272,-0.08775 0.643737,-0.326883 0.643737,-4.8922632 z m 9.2654539,5.4545462 c -0.761265,-0.761266 -0.785454,-0.927468 -0.785454,-5.3968462 0,-4.180677 0.06195,-4.690143 0.663226,-5.45454497 0.866993,-1.10220398 2.282446,-1.12657398 3.35132,-0.0577 0.762163,0.76216297 0.785454,0.92390497 0.785454,5.45454497 0,4.5306402 -0.02329,4.6923822 -0.785454,5.4545462 -0.432,0.432 -1.158546,0.785454 -1.614546,0.785454 -0.456,0 -1.182546,-0.353454 -1.614546,-0.785454 z m 2.54031,-1.000718 c 0.296471,-0.772592 0.221716,-8.5550132 -0.08685,-9.0418252 -0.149209,-0.235399 -0.615004,-0.379399 -1.0351,-0.32 -0.758413,0.107234 -0.764443,0.139552 -0.853262,4.572588 -0.0492,2.455524 -0.01772,4.6515242 0.06996,4.8799992 0.225072,0.586528 1.671804,0.517609 1.905258,-0.09076 z"
       id="path895" />
  </g>
</svg>
