<?xml version="1.0" encoding="UTF-8" standalone="no"?>
<svg
   width="500"
   zoomAndPan="magnify"
   viewBox="0 0 375 374.999991"
   height="500"
   preserveAspectRatio="xMidYMid meet"
   version="1.0"
   id="svg18425"
   sodipodi:docname="dotmicro.svg"
   inkscape:version="1.1.1 (3bf5ae0d25, 2021-09-20)"
   xmlns:inkscape="http://www.inkscape.org/namespaces/inkscape"
   xmlns:sodipodi="http://sodipodi.sourceforge.net/DTD/sodipodi-0.dtd"
   xmlns="http://www.w3.org/2000/svg"
   xmlns:svg="http://www.w3.org/2000/svg">
  <sodipodi:namedview
     id="namedview18427"
     pagecolor="#ffffff"
     bordercolor="#666666"
     borderopacity="1.0"
     inkscape:pageshadow="2"
     inkscape:pageopacity="0.0"
     inkscape:pagecheckerboard="0"
     showgrid="false"
     inkscape:zoom="1.074"
     inkscape:cx="249.53445"
     inkscape:cy="250"
     inkscape:window-width="1366"
     inkscape:window-height="745"
     inkscape:window-x="-8"
     inkscape:window-y="-8"
     inkscape:window-maximized="1"
     inkscape:current-layer="svg18425" />
  <defs
     id="defs18185">
    <g
       id="g18180" />
    <clipPath
       id="id1">
      <path
         d="M 135.390625 106.699219 L 196 106.699219 L 196 169.699219 L 135.390625 169.699219 Z M 135.390625 106.699219 "
         clip-rule="nonzero"
         id="path18182" />
    </clipPath>
  </defs>
  <g
     fill="#000000"
     fill-opacity="1"
     id="g18239">
    <g
       transform="translate(133.538852, 166.240302)"
       id="g18237">
      <g
         id="g18235" />
    </g>
  </g>
  <g
     fill="#000000"
     fill-opacity="1"
     id="g18245">
    <g
       transform="translate(142.417967, 166.240302)"
       id="g18243">
      <g
         id="g18241" />
    </g>
  </g>
  <g
     fill="#000000"
     fill-opacity="1"
     id="g18251">
    <g
       transform="translate(151.297083, 166.240302)"
       id="g18249">
      <g
         id="g18247" />
    </g>
  </g>
  <g
     fill="#000000"
     fill-opacity="1"
     id="g18257">
    <g
       transform="translate(160.176198, 166.240302)"
       id="g18255">
      <g
         id="g18253" />
    </g>
  </g>
  <g
     fill="#000000"
     fill-opacity="1"
     id="g18263">
    <g
       transform="translate(169.055313, 166.240302)"
       id="g18261">
      <g
         id="g18259" />
    </g>
  </g>
  <g
     fill="#000000"
     fill-opacity="1"
     id="g18269">
    <g
       transform="translate(177.934429, 166.240302)"
       id="g18267">
      <g
         id="g18265" />
    </g>
  </g>
  <g
     fill="#000000"
     fill-opacity="1"
     id="g18275">
    <g
       transform="translate(186.813544, 166.240302)"
       id="g18273">
      <g
         id="g18271" />
    </g>
  </g>
  <g
     id="g18750"
     transform="matrix(1.1680251,0,0,1.157133,-44.935386,-16.765973)">
    <g
       fill="#000000"
       fill-opacity="1"
       id="g18193"
       style="fill:#008080">
      <g
         transform="translate(105.29883,199.45622)"
         id="g18191"
         style="fill:#008080">
        <g
           id="g18189"
           style="fill:#008080">
          <path
             d="m 38.183594,-29.066406 c -4.058594,0 -7.195313,1.851562 -8.976563,4.988281 -1.636719,-2.992187 -4.488281,-4.988281 -8.121093,-4.988281 -3.277344,0 -5.910157,1.566406 -7.765626,4.0625 v -3.492188 H 4.203125 V 0 h 9.117187 v -16.527344 c 0,-2.066406 1.285157,-4.488281 4.0625,-4.488281 2.492188,0 4.132813,1.996094 4.132813,4.488281 V 0 h 9.117187 v -16.527344 c 0,-2.066406 1.28125,-4.488281 4.0625,-4.488281 2.492188,0 4.203126,1.996094 4.203126,4.488281 V 0 h 9.046874 v -18.023438 c 0,-6.625 -3.492187,-11.042968 -9.761718,-11.042968 z m 0,0"
             id="path18187"
             style="fill:#008080" />
        </g>
      </g>
    </g>
    <g
       fill="#000000"
       fill-opacity="1"
       id="g18201"
       style="fill:#008080">
      <g
         transform="translate(156.87322,199.45622)"
         id="g18199"
         style="fill:#008080">
        <g
           id="g18197"
           style="fill:#008080">
          <path
             d="m 8.90625,-33.269531 c 2.707031,0 4.984375,-2.28125 4.984375,-4.988281 0,-2.777344 -2.277344,-4.984376 -4.984375,-4.984376 -2.707031,0 -4.988281,2.207032 -4.988281,4.984376 0,2.707031 2.28125,4.988281 4.988281,4.988281 z M 4.34375,0 h 9.050781 V -28.496094 H 4.34375 Z m 0,0"
             id="path18195"
             style="fill:#008080" />
        </g>
      </g>
    </g>
    <g
       fill="#000000"
       fill-opacity="1"
       id="g18209"
       style="fill:#008080">
      <g
         transform="translate(174.68206,199.45622)"
         id="g18207"
         style="fill:#008080">
        <g
           id="g18205"
           style="fill:#008080">
          <path
             d="m 18.09375,0.570312 c 8.550781,0 14.390625,-4.988281 15.601562,-12.109374 h -9.402343 c -0.925781,2.421874 -3.277344,3.988281 -6.199219,4.058593 -3.917969,-0.070312 -6.765625,-2.921875 -6.765625,-6.769531 0,-3.84375 2.847656,-6.695312 6.765625,-6.765625 2.921875,0.07031 5.273438,1.636719 6.199219,4.058594 h 9.402343 c -1.210937,-7.121094 -7.050781,-12.109375 -15.601562,-12.109375 -9.542969,0 -15.886719,6.269531 -15.886719,14.816406 0,8.550781 6.34375,14.820312 15.886719,14.820312 z m 0,0"
             id="path18203"
             style="fill:#008080" />
        </g>
      </g>
    </g>
    <g
       fill="#000000"
       fill-opacity="1"
       id="g18217"
       style="fill:#008080">
      <g
         transform="translate(210.0148,199.45622)"
         id="g18215"
         style="fill:#008080">
        <g
           id="g18213"
           style="fill:#008080">
          <path
             d="m 21.300781,-29.066406 c -3.347656,0 -6.125,1.710937 -7.980469,4.488281 v -3.917969 H 4.203125 V 0 h 9.117187 v -13.605469 c 0,-4.703125 3.207032,-7.410156 7.695313,-7.410156 1.070313,0 1.996094,0.140625 2.636719,0.285156 v -8.050781 c -0.640625,-0.214844 -1.496094,-0.285156 -2.351563,-0.285156 z m 0,0"
             id="path18211"
             style="fill:#008080" />
        </g>
      </g>
    </g>
    <g
       fill="#000000"
       fill-opacity="1"
       id="g18225"
       style="fill:#008080">
      <g
         transform="translate(233.52246,199.45622)"
         id="g18223"
         style="fill:#008080">
        <g
           id="g18221"
           style="fill:#008080">
          <path
             d="m 18.09375,0.570312 c 9.546875,0 15.816406,-6.269531 15.816406,-14.820312 0,-8.546875 -6.269531,-14.816406 -15.816406,-14.816406 -9.542969,0 -15.886719,6.269531 -15.886719,14.816406 0,8.550781 6.34375,14.820312 15.886719,14.820312 z m 0,-8.050781 c -3.917969,-0.070312 -6.765625,-2.921875 -6.765625,-6.769531 0,-3.84375 2.847656,-6.695312 6.765625,-6.765625 3.847656,0.07031 6.769531,2.921875 6.769531,6.765625 0,3.847656 -2.921875,6.699219 -6.769531,6.769531 z m 0,0"
             id="path18219"
             style="fill:#008080" />
        </g>
      </g>
    </g>
    <g
       fill="#000000"
       fill-opacity="1"
       id="g18233"
       style="fill:#008080">
      <g
         transform="translate(108.67167,166.2403)"
         id="g18231"
         style="fill:#008080">
        <g
           id="g18229"
           style="fill:#008080">
          <path
             d="m 10.679688,0.558594 c 3.519531,0 5.71875,-1.636719 6.917968,-3.359375 V 0 h 4.921875 v -28 h -5.5625 v 10.800781 c -1.238281,-1.320312 -3.277343,-2.558593 -6.277343,-2.558593 -6.121094,0 -9.398438,4.917968 -9.398438,10.160156 0,5.238281 3.277344,10.15625 9.398438,10.15625 z M 12,-4.121094 c -3.160156,0 -5.039062,-2.476562 -5.039062,-5.476562 0,-3 1.878906,-5.480469 5.039062,-5.480469 2.398438,0 4.199219,1.558594 4.957031,3.199219 v 4.558594 C 16.199219,-5.679688 14.398438,-4.121094 12,-4.121094 Z m 0,0"
             id="path18227"
             style="fill:#008080" />
        </g>
      </g>
    </g>
    <g
       fill="#000000"
       fill-opacity="1"
       id="g18283"
       style="fill:#008080">
      <g
         transform="translate(195.68338,166.2403)"
         id="g18281"
         style="fill:#008080">
        <g
           id="g18279"
           style="fill:#008080">
          <path
             d="m 10.71875,0.558594 c 1.921875,0 3.679688,-0.320313 5.160156,-0.839844 v -4.476562 c -1.121094,0.398437 -2.199218,0.597656 -3.480468,0.597656 C 10.320312,-4.160156 9.359375,-5 9.359375,-7 v -7.519531 h 6.039063 v -4.679688 H 9.359375 v -6.917969 l -5.558594,1.320313 v 5.597656 H 0.558594 v 4.679688 h 3.242187 v 8.601562 c 0,4.757813 3.199219,6.476563 6.917969,6.476563 z m 0,0"
             id="path18277"
             style="fill:#008080" />
        </g>
      </g>
    </g>
    <path
       fill="#100f0d"
       d="m 143.57422,154.94531 c 0.004,0.004 0.004,0.004 0.004,0.0117 0.004,0 0.004,0 0.008,0 l -0.0117,-0.0117"
       fill-opacity="1"
       fill-rule="nonzero"
       id="path18285"
       style="fill:#008080" />
    <path
       fill="#100f0d"
       d="m 140.29297,147.83984 c -0.004,0 -0.004,0.004 -0.008,0.004 0,0 0,0.004 -0.004,0.008 l 0.0117,-0.0117"
       fill-opacity="1"
       fill-rule="nonzero"
       id="path18287"
       style="fill:#008080" />
    <g
       clip-path="url(#id1)"
       id="g18291"
       style="fill:#008080">
      <path
         fill="#100f0d"
         d="m 194.45703,142.44531 c 0.008,0.0937 0.008,0.17969 -0.0117,0.26953 -0.0352,0.14063 -0.0664,0.28907 -0.0781,0.4375 -0.0195,0.1836 -0.0195,0.35938 -0.0937,0.53907 -0.0508,0.12109 -0.0391,0.26953 -0.043,0.40625 -0.008,0.14062 -0.0391,0.26562 -0.0977,0.39843 -0.10547,0.23828 -0.1875,0.48438 -0.28125,0.73047 -0.10547,0.26563 -0.21094,0.53125 -0.3164,0.79688 -0.0117,0.0312 -0.0391,0.0586 -0.0469,0.0898 -0.12109,0.57422 -0.48828,1.03516 -0.70703,1.55859 -0.0352,0.082 -0.0977,0.15625 -0.14063,0.23438 -0.22656,0.39844 -0.43359,0.80859 -0.66796,1.20312 -0.16407,0.27344 -0.3086,0.5586 -0.48047,0.82813 -0.043,0.0781 -0.0977,0.14844 -0.14844,0.22656 -0.16406,0.23438 -0.32422,0.47266 -0.48438,0.70703 -0.0508,0.0742 -0.0977,0.15625 -0.16406,0.21875 -0.22656,0.20313 -0.37109,0.46485 -0.51562,0.72266 -0.0391,0.0703 -0.0742,0.15234 -0.13672,0.19922 -0.19922,0.14453 -0.28516,0.38281 -0.44141,0.5625 -0.14062,0.16015 -0.26172,0.34375 -0.39844,0.52344 -0.0664,-0.0859 0,-0.11719 0.0234,-0.16016 0.10156,-0.20313 0.19922,-0.41016 0.30078,-0.61328 0.1211,-0.23438 0.25,-0.46094 0.375,-0.69141 0.0977,-0.17969 0.16407,-0.3789 0.30469,-0.53125 0.10938,-0.41015 0.36719,-0.76172 0.49609,-1.16406 0.0977,-0.28906 0.21875,-0.57422 0.26954,-0.88281 0.0234,-0.13282 0.0977,-0.25782 0.1289,-0.39063 0.10547,-0.39844 0.25,-0.78515 0.39063,-1.17187 0.0156,-0.0312 0.0234,-0.0664 0.0273,-0.10157 0.043,-0.4414 0.14453,-0.8789 0.16406,-1.32812 0,-0.11328 0.0273,-0.22266 0.043,-0.33594 0.004,-0.0234 0.0156,-0.0469 0.0117,-0.0664 -0.0742,-0.28125 0.0547,-0.53516 0.10938,-0.79688 0.0195,-0.082 0.0117,-0.17578 -0.0156,-0.26172 0.41797,-1.87109 0.64453,-3.8125 0.64453,-5.8125 0,-4.92969 -1.33984,-9.54297 -3.66406,-13.5039 0.10156,0.0859 0.19922,0.18359 0.27344,0.29687 0.043,0.0664 0.10547,0.1211 0.16406,0.17969 0.0312,0.0312 0.0781,0.0547 0.0977,0.0937 0.11718,0.25 0.3125,0.44531 0.47265,0.66406 0.17188,0.23828 0.34766,0.48438 0.51172,0.73047 0.17578,0.26563 0.33984,0.54297 0.51563,0.80859 0.25781,0.39844 0.4414,0.82813 0.64453,1.25 0.0625,0.1211 0.14453,0.23438 0.21875,0.34766 0.0586,0.0859 0.11718,0.17187 0.17578,0.25391 0.11328,0.16015 0.21094,0.33593 0.34375,0.46875 0.17969,0.17578 0.29297,0.38281 0.36328,0.61328 0.0742,0.2539 0.17187,0.49609 0.28516,0.73437 0.0625,0.13281 0.0703,0.28516 0.11718,0.42969 0.0859,0.26172 0.17578,0.51953 0.26172,0.77734 0.16016,0.48047 0.27344,0.96875 0.39063,1.46094 0.22265,0.93359 0.38672,1.88281 0.51562,2.83594 0.0586,0.45312 0.11719,0.90625 0.23438,1.35156 0.0781,0.29297 0.0781,0.61328 0.082,0.92188 0.004,0.36718 -0.043,0.73437 0.0352,1.09375 0.008,0.0352 0.0234,0.0703 0.0195,0.10156 -0.0273,0.28515 -0.0703,0.5664 -0.082,0.85156 -0.0156,0.29688 -0.008,0.59766 0.004,0.89453 z m -24.44922,24.73047 c 0.043,0.004 0.082,0.004 0.1211,0.004 0,0.0391 0,0.082 -0.0156,0.11718 -0.0117,0.0234 -0.0508,0.0312 -0.0781,0.0469 -0.0156,-0.0273 -0.0391,-0.0508 -0.043,-0.082 0,-0.0273 0.0117,-0.0547 0.0156,-0.0859 z m 19.72266,-13.19922 c -0.20703,0.34375 -0.42969,0.67578 -0.73438,0.94141 -0.10156,0.0898 -0.17187,0.21094 -0.25,0.32422 -0.0742,0.11718 -0.125,0.24609 -0.20312,0.35937 -0.0937,0.14453 -0.19922,0.27735 -0.38672,0.32031 -0.082,0.0234 -0.15234,0.0859 -0.23828,0.13672 0.0117,0.0703 0.0156,0.125 0.0234,0.17969 0.0156,0.12109 -0.008,0.23438 -0.0781,0.32813 -0.19531,0.24218 -0.32812,0.52343 -0.5,0.77734 -0.15234,0.23047 -0.30078,0.46484 -0.47266,0.67578 -0.082,0.11328 -0.15234,0.23047 -0.20703,0.35547 -0.0352,0.082 -0.0625,0.17578 -0.11328,0.25 -0.2539,0.37891 -0.48828,0.78125 -0.79687,1.11328 -0.23828,0.26172 -0.47657,0.51953 -0.79297,0.70313 -0.19141,0.11328 -0.31641,0.3125 -0.48438,0.53906 0.26953,-0.043 0.40625,-0.26953 0.65625,-0.25391 -0.004,0.0664 0.008,0.14063 -0.0156,0.19141 -0.0469,0.0937 -0.11328,0.17578 -0.16797,0.26172 -0.0469,0.0664 -0.11328,0.125 -0.13672,0.19531 -0.10937,0.30859 -0.36719,0.48828 -0.58984,0.69922 -0.0781,0.0781 -0.1836,0.13281 -0.28125,0.1914 -0.13672,0.082 -0.27735,0.14844 -0.39453,0.26563 -0.0781,0.0781 -0.19532,0.12109 -0.30469,0.18359 -0.0234,0.22266 -0.22266,0.34766 -0.32813,0.53516 -0.0195,0.0273 -0.0547,0.0625 -0.082,0.0625 -0.16406,-0.004 -0.25,0.16016 -0.3789,0.19531 -0.17579,0.0391 -0.22657,0.21094 -0.37891,0.26953 -0.125,0.0508 -0.21484,0.19922 -0.31641,0.30469 -0.0312,0.0352 -0.0586,0.0742 -0.0977,0.0977 -0.11328,0.0703 -0.25391,0.11328 -0.35157,0.20312 -0.0977,0.0898 -0.16406,0.20313 -0.29687,0.26953 -0.0977,0.0469 -0.16406,0.14844 -0.27344,0.25 -0.0234,-0.008 -0.0742,-0.0195 -0.14062,-0.0352 -0.21875,0.1875 -0.46875,0.33593 -0.76172,0.41015 -0.20703,0.0547 -0.35938,0.19141 -0.46485,0.375 -0.0195,0.0391 -0.0469,0.0742 -0.082,0.12891 -0.0547,-0.0117 -0.10547,-0.0312 -0.16015,-0.0391 -0.16016,-0.0273 -0.30078,-0.004 -0.44922,0.0937 -0.20703,0.13672 -0.41797,0.26562 -0.6875,0.27734 -0.16797,0.008 -0.33203,0.0781 -0.4961,0.0977 -0.16796,0.0234 -0.30859,0.0703 -0.38281,0.2539 -0.23047,-0.0937 -0.43359,0.004 -0.64453,0.043 -0.21484,0.0391 -0.42578,0.0742 -0.60547,0.21485 -0.0586,0.043 -0.14844,0.0586 -0.22656,0.0742 -0.28125,0.0508 -0.55469,0.10938 -0.81641,0.23047 -0.0859,0.043 -0.20703,0.0195 -0.29687,0.0625 -0.1836,0.0937 -0.38672,0.11719 -0.57813,0.17188 -0.29297,0.0898 -0.59375,0.16015 -0.89453,0.21875 -0.0312,0.004 -0.0625,0.0195 -0.0898,0.0391 -0.44141,0.24609 -0.94922,0.21875 -1.41016,0.37109 -0.32031,-0.004 -0.61719,0.15235 -0.9414,0.1211 -0.13282,-0.0117 -0.25391,0.0664 -0.39844,0.0664 -0.29297,0.004 -0.58594,0.0625 -0.87891,0.0937 -0.0898,0.0117 -0.18359,0.004 -0.27344,-0.004 -0.0195,0 -0.043,-0.0352 -0.0937,-0.0781 0.0859,-0.0195 0.13672,-0.0352 0.1875,-0.043 0.26954,-0.0391 0.54297,-0.0703 0.8125,-0.11328 0.0781,-0.0117 0.14844,-0.0469 0.22657,-0.0703 0.0547,-0.0156 0.10547,-0.0469 0.16015,-0.0469 0.17578,-0.004 0.33985,-0.0234 0.48828,-0.125 0.043,-0.0312 0.11329,-0.043 0.16797,-0.0312 0.21875,0.0312 0.40235,-0.0703 0.58594,-0.16016 0.13672,-0.0664 0.26953,-0.10156 0.42188,-0.12109 0.17968,-0.0273 0.35546,-0.0859 0.52734,-0.14063 0.33594,-0.10547 0.65234,-0.25781 0.98047,-0.39453 0.0117,-0.082 0.0352,-0.15234 0.0312,-0.21484 -0.004,-0.0898 0,-0.19922 -0.0508,-0.26172 -0.0703,-0.0898 -0.16016,-0.004 -0.24219,0.0312 -0.0391,0.0117 -0.0859,0 -0.13281,0 -0.10938,-0.0117 -0.22657,-0.0508 -0.33203,-0.0312 -0.28125,0.0547 -0.55469,0.13281 -0.8125,0.19531 -0.082,0.10156 0.0195,0.13672 0.0352,0.19922 0.0156,0.0703 -0.0117,0.10547 -0.10156,0.11719 -0.0391,-0.0703 -0.0781,-0.14844 -0.12891,-0.24219 -0.043,0.0273 -0.11328,0.0469 -0.11328,0.0703 0,0.14844 -0.125,0.16797 -0.22656,0.23828 -0.0508,-0.0703 -0.10156,-0.14062 -0.16016,-0.22265 -0.22656,-0.0195 -0.47265,-0.11719 -0.64453,0.16015 0.0273,0.0586 0.0625,0.11719 0.082,0.17969 0.0195,0.0859 -0.0703,0.17187 -0.14062,0.14453 -0.0664,-0.0273 -0.1211,-0.0781 -0.1836,-0.0859 -0.0586,-0.008 -0.125,0.0312 -0.1914,0.043 -0.0234,0.008 -0.0547,0.004 -0.082,0.004 0.0469,-0.0508 0.0937,-0.10156 0.14062,-0.15625 -0.17187,-0.10938 -0.34375,-0.0508 -0.5039,-0.0703 -0.0742,-0.008 -0.10157,0.0508 -0.0742,0.14453 0.008,0.0273 0.0352,0.0547 0.0586,0.082 0.0352,0 0.0664,-0.008 0.10156,-0.008 0.0391,0.004 0.0859,0.0117 0.125,0.0156 -0.10547,0.0586 -0.0234,0.1875 -0.0977,0.27734 -0.0547,0.0195 -0.12891,0.043 -0.23438,0.0742 -0.0469,-0.0547 -0.0859,-0.14062 -0.14844,-0.17187 -0.0625,-0.0273 -0.15234,-0.008 -0.25,-0.008 -0.0312,0.0508 -0.0703,0.12109 -0.11718,0.17968 -0.0391,0.043 -0.0859,0.082 -0.13672,0.0977 -0.15235,0.0391 -0.3125,0.0352 -0.45313,0.125 -0.0352,0.0195 -0.11328,-0.008 -0.15625,-0.0352 -0.043,-0.0312 -0.0703,-0.0898 -0.11718,-0.15234 -0.0898,0.0859 -0.15235,0.14453 -0.22266,0.21094 -0.082,-0.0156 -0.16406,-0.0352 -0.24609,-0.0547 -0.0391,0.0586 -0.0703,0.10547 -0.10547,0.15234 -0.0508,0.004 -0.0781,-0.0195 -0.1836,-0.15625 -0.043,0.004 -0.10156,0.0117 -0.15625,0.0117 -0.0547,0.004 -0.10937,0 -0.16406,0 -0.0195,0.0195 -0.043,0.0273 -0.0508,0.0469 -0.15234,0.3125 -0.21484,0.26562 -0.44922,0.16797 -0.19922,-0.082 -0.39453,-0.11329 -0.60156,-0.0547 -0.0508,0.0156 -0.10938,-0.004 -0.16406,-0.004 -0.0508,0 -0.12891,-0.0195 -0.15625,0.0117 -0.11329,0.10938 -0.26563,0.0234 -0.36719,0.13281 -0.0547,-0.0781 -0.0898,-0.125 -0.11328,-0.16015 -0.15625,0.0273 -0.29297,0.0352 -0.42188,0.0781 -0.082,0.0234 -0.16015,0.12891 -0.23437,0.1211 -0.082,-0.008 -0.17188,-0.0234 -0.25782,-0.004 -0.0547,0.0156 -0.0977,0.0547 -0.17187,0.0898 -0.0859,-0.0703 -0.17969,-0.15234 -0.27734,-0.22656 -0.17188,-0.13281 -0.34375,-0.26172 -0.57422,-0.28125 -0.12891,-0.0117 -0.25391,-0.0898 -0.375,-0.14453 -0.20703,-0.0898 -0.41407,-0.18359 -0.65625,-0.29297 0.25781,-0.0469 0.46093,0.043 0.67187,0.0625 0.52344,0.0547 1.04297,0.11328 1.57031,0.10547 0.3125,-0.004 0.61329,-0.0586 0.92188,-0.082 0.0625,-0.004 0.12891,-0.0391 0.1875,-0.0703 0.0547,-0.0273 0.043,-0.16016 -0.0195,-0.17188 -0.20313,-0.0352 -0.37891,-0.14844 -0.59375,-0.15625 -0.37891,-0.0117 -0.73828,-0.13281 -1.08985,-0.26562 -0.17968,-0.0703 -0.35546,-0.15625 -0.54687,-0.1836 -0.0586,-0.008 -0.12109,-0.0195 -0.16406,-0.0469 -0.37891,-0.25782 -0.8086,-0.36328 -1.24219,-0.46485 -0.0664,-0.0156 -0.13281,-0.0391 -0.19531,-0.0742 -0.40235,-0.20703 -0.82813,-0.375 -1.25782,-0.52734 -0.22656,-0.082 -0.45312,-0.14844 -0.6914,-0.1875 -0.13281,-0.0273 -0.26563,-0.0391 -0.375,-0.14844 -0.0391,-0.043 -0.125,-0.0586 -0.1875,-0.0625 -0.125,-0.004 -0.24219,-0.0352 -0.36328,-0.082 -0.32813,-0.13281 -0.66407,-0.23828 -0.9961,-0.36328 -0.41015,-0.15625 -0.83984,-0.28125 -1.24218,-0.46484 -0.46485,-0.21875 -0.94532,-0.40235 -1.3711,-0.70313 -0.0977,-0.0664 -0.23047,-0.0937 -0.35156,-0.11719 -0.20703,-0.0352 -0.35156,-0.14843 -0.48828,-0.30078 -0.0586,-0.0664 -0.0859,-0.14453 -0.0859,-0.23047 3.50781,1.73047 7.44922,2.70313 11.62109,2.70313 8.95704,0 16.86329,-4.48047 21.64063,-11.33594 -0.0117,0.0312 -0.0312,0.0625 -0.0469,0.0937 -0.11718,0.23438 -0.22656,0.46485 -0.43359,0.63672 -0.0273,0.0195 -0.043,0.0547 -0.0508,0.0898 -0.12109,0.39454 -0.42578,0.67188 -0.63672,1.00391 -0.0508,0.0781 -0.10547,0.15234 -0.15625,0.22656 -0.23437,0.33985 -0.48047,0.66407 -0.73828,0.98438 -0.0625,0.0781 -0.13672,0.10937 -0.21484,0.125 -0.0977,0.35156 -0.19532,0.67969 -0.42969,0.9414 -0.11328,0.12891 -0.22266,0.25391 -0.33985,0.37891 -0.18359,0.20313 -0.36718,0.40234 -0.55468,0.60938 -0.0156,0.0156 -0.043,0.0273 -0.0469,0.0469 -0.0391,0.24219 -0.26172,0.33594 -0.40234,0.49609 -0.0898,0.10157 -0.17969,0.20313 -0.26563,0.3086 -0.16015,0.20312 -0.35547,0.38672 -0.55468,0.55859 -0.22657,0.19531 -0.41797,0.42188 -0.61329,0.64453 -0.0234,0.0312 -0.0312,0.082 -0.0508,0.14063 0.26563,0.0234 0.46875,-0.0664 0.60547,-0.25781 0.125,-0.17579 0.28906,-0.29297 0.45703,-0.41407 0.11719,-0.0898 0.23047,-0.1914 0.33594,-0.29297 0.125,-0.11718 0.23828,-0.24218 0.39063,-0.33593 0.10156,-0.0586 0.17187,-0.17969 0.26171,-0.26563 0.27735,-0.26953 0.54297,-0.55469 0.78516,-0.85547 0.28125,-0.35156 0.59766,-0.66406 0.87109,-1.01562 0.21875,-0.1211 0.28125,-0.38281 0.47266,-0.53125 0.0312,-0.0273 0.0547,-0.0742 0.0781,-0.11328 0.16406,-0.32032 0.39062,-0.58594 0.67187,-0.8125 0.12891,-0.10547 0.26172,-0.22657 0.36328,-0.35938 0.15235,-0.20703 0.34766,-0.36328 0.52344,-0.53906 0.10547,-0.10547 0.19531,-0.22266 0.30078,-0.32813 0.28516,-0.29296 0.58594,-0.57812 0.87109,-0.87109 0.0937,-0.0977 0.19141,-0.20312 0.25,-0.32422 0.0781,-0.15234 0.19532,-0.24609 0.36329,-0.32031 0.0508,0.10937 0.0273,0.20703 -0.0234,0.28906 z m -21.01172,14.22266 c -0.0117,0 -0.0195,-0.008 -0.0312,-0.0117 0.0117,-0.0117 0.0195,-0.0234 0.0312,-0.0352 0.008,0.0117 0.0195,0.0234 0.0273,0.0352 -0.008,0.004 -0.0195,0.0117 -0.0273,0.0117 z m -0.62109,-0.0117 c -0.008,0 -0.0117,-0.0312 -0.0195,-0.0508 0.0273,-0.008 0.0508,-0.0195 0.0781,-0.0234 0.008,0 0.0195,0.0352 0.0273,0.0625 -0.0273,0.004 -0.0586,0.0117 -0.0859,0.0117 z m -4.19141,0.0937 c -0.008,0.008 -0.0352,-0.0117 -0.0508,-0.0195 0.0195,-0.0352 0.0391,-0.0703 0.0625,-0.10156 0,-0.004 0.0352,0.0156 0.0703,0.0312 -0.0312,0.0352 -0.0547,0.0664 -0.082,0.0898 z m -0.15625,0.39844 c -0.0195,-0.008 -0.0352,-0.043 -0.0508,-0.0664 0.0234,-0.008 0.0508,-0.0312 0.0703,-0.0312 0.0312,0.004 0.0547,0.0273 0.10938,0.0586 -0.0781,0.0273 -0.10547,0.0469 -0.12891,0.0391 z m -8.83203,-4.34766 c -0.0391,-0.0312 -0.0625,-0.0469 -0.0859,-0.0664 0.0195,-0.0234 0.0352,-0.0586 0.0547,-0.0586 0.0234,-0.004 0.0625,0.0195 0.0742,0.043 0.008,0.0117 -0.0234,0.0469 -0.043,0.082 z m -3.75,-3.47266 c -0.2461,-0.12109 -0.48828,-0.23828 -0.69531,-0.42968 -0.0937,-0.0859 -0.20313,-0.14844 -0.30079,-0.22657 -0.15625,-0.11328 -0.30859,-0.23437 -0.46484,-0.34765 -0.082,-0.0625 -0.16406,-0.14063 -0.25781,-0.16406 -0.35547,-0.0977 -0.61719,-0.33985 -0.89844,-0.55469 -0.0508,-0.043 -0.10547,-0.0859 -0.16406,-0.1211 -0.3125,-0.1914 -0.625,-0.3789 -0.9375,-0.5625 -0.20313,-0.125 -0.41016,-0.24609 -0.6211,-0.36718 -0.0781,-0.043 -0.16406,-0.0742 -0.24218,-0.11719 -0.34375,-0.17969 -0.57813,-0.48047 -0.82813,-0.76172 -0.30859,-0.33984 -0.625,-0.67187 -0.9375,-1.00391 -0.0781,-0.0859 -0.16015,-0.16015 -0.3164,-0.13281 0.0781,0.28906 0.26171,0.50391 0.41406,0.73828 0.15625,0.23828 0.33203,0.46485 0.50781,0.71485 -0.17187,0.0391 -0.31641,0.0742 -0.47266,0.004 -0.0703,-0.0312 -0.14843,-0.0586 -0.22656,-0.0625 -0.10937,-0.008 -0.19922,-0.043 -0.27344,-0.12109 -0.0469,-0.0469 -0.0937,-0.0469 -0.15625,-0.0391 -0.15625,0.008 -0.26953,-0.0977 -0.20312,-0.21485 0.13672,-0.23437 0.0391,-0.375 -0.125,-0.52734 -0.0898,-0.0859 -0.13281,-0.21484 -0.20703,-0.31641 -0.13281,-0.17578 -0.0977,-0.39453 -0.17188,-0.58984 0.082,-0.0898 0.16016,-0.16797 0.24219,-0.25781 -0.0859,-0.15235 -0.16797,-0.29688 -0.25391,-0.44141 -0.26171,-0.0352 -0.27343,-0.0469 -0.30078,-0.30078 -0.008,-0.043 -0.008,-0.10547 -0.0352,-0.125 -0.20313,-0.15625 -0.16797,-0.38672 -0.19532,-0.59766 -0.0117,-0.0625 -0.0117,-0.1289 -0.0234,-0.21875 -0.0586,0.0391 -0.0937,0.0664 -0.13282,0.0859 -0.1914,0.125 -0.41796,0.0664 -0.45312,-0.15234 -0.0469,-0.28516 -0.19531,-0.5 -0.375,-0.71094 -0.10547,-0.11719 -0.0898,-0.26953 0.0273,-0.44141 0.0312,0.0508 0.0586,0.0977 0.0898,0.14063 0.0312,0.043 0.0625,0.0977 0.10156,0.13281 0.0547,0.0547 0.14062,0.0508 0.17969,-0.004 0.0469,-0.0508 0.0312,-0.12109 -0.043,-0.16796 -0.0547,-0.0352 -0.11719,-0.0625 -0.17188,-0.0977 -0.0156,-0.12891 -0.0312,-0.24609 -0.0508,-0.39453 -0.0586,0.0664 -0.0937,0.10547 -0.13281,0.15234 -0.0352,-0.0898 -0.0625,-0.17187 -0.0977,-0.25 -0.0312,-0.0664 -0.0781,-0.1289 -0.11718,-0.19922 -0.0508,0.0234 -0.0977,0.0508 -0.15625,0.0781 -0.11329,-0.0508 -0.20704,-0.12891 -0.26172,-0.25 -0.0781,-0.17578 -0.17188,-0.34766 -0.23828,-0.53125 -0.0547,-0.14844 -0.0859,-0.3086 -0.11329,-0.46485 -0.0195,-0.10546 0.0586,-0.14453 0.17188,-0.10156 0.0273,0.0117 0.0547,0.0195 0.10156,0.0391 0.008,-0.0937 0.0117,-0.17187 0.0156,-0.26171 -0.0547,-0.0312 -0.10547,-0.0586 -0.17188,-0.0937 -0.008,-0.10157 -0.0195,-0.20313 -0.0273,-0.29688 -0.0703,-0.0312 -0.0859,0.0117 -0.11328,0.0469 -0.0703,0.0781 -0.13282,0.0859 -0.19922,0.0312 -0.0977,-0.082 -0.19141,-0.16797 -0.28906,-0.25391 -0.0781,-0.41797 -0.1836,-0.83594 -0.34375,-1.24219 -0.0391,-0.10547 -0.0547,-0.21875 -0.0859,-0.32812 -0.0508,-0.16016 0.0195,-0.25782 0.14844,-0.33594 0.0352,-0.0781 0.0742,-0.16016 0.11718,-0.25781 -0.0703,-0.15235 -0.14843,-0.3125 -0.22656,-0.46485 -0.10547,-0.0195 -0.13672,0.0195 -0.125,0.10938 0.004,0.0312 0.0352,0.0625 0.0312,0.0937 -0.004,0.043 -0.0195,0.0937 -0.0508,0.11328 -0.0469,0.0352 -0.16016,-0.0117 -0.16016,-0.0703 -0.004,-0.15625 -0.0859,-0.3086 -0.0273,-0.48438 0.0625,0.0195 0.11328,0.0352 0.16406,0.0469 0.0195,-0.0117 0.043,-0.0195 0.0469,-0.0352 0.008,-0.043 -0.008,-0.0977 0.0117,-0.13281 0.043,-0.082 0.11328,-0.16406 0.0625,-0.25391 -0.043,-0.0703 -0.12891,-0.11719 -0.20704,-0.18359 0,-0.0703 0,-0.14453 0,-0.22266 -0.14062,-0.0156 -0.0898,0.15235 -0.1875,0.17188 -0.0742,0 -0.0625,-0.0781 -0.0898,-0.1211 0.10547,-0.11328 0.0977,-0.25781 0.0898,-0.41015 -0.0664,-0.0391 -0.1289,-0.0781 -0.20312,-0.1211 0.004,-0.0742 0.0117,-0.15234 0.0156,-0.23047 0.004,-0.0391 0.0117,-0.0937 -0.008,-0.12109 -0.0898,-0.13672 -0.0586,-0.25 0.0391,-0.35547 0,-0.004 0.004,-0.004 0.004,-0.008 l -0.004,0.004 c -0.0586,-0.0156 -0.0742,-0.0703 -0.0469,-0.10547 0.0859,-0.11719 0.1875,-0.23047 0.28516,-0.35157 0.0664,-0.1875 -0.0586,-0.375 -0.0391,-0.5664 0.0195,-0.19531 0.0547,-0.38672 0.0156,-0.58203 -0.0273,-0.13282 -0.0781,-0.26172 -0.125,-0.41797 0.17969,-0.27344 0.082,-0.59766 0.043,-0.91406 -0.0117,-0.10938 -0.0586,-0.21875 -0.082,-0.32813 -0.0234,-0.0898 -0.0391,-0.17969 -0.043,-0.26953 0,-0.0742 -0.0234,-0.12891 -0.0625,-0.19141 -0.0273,-0.043 -0.0312,-0.10156 -0.0391,-0.15625 -0.0234,-0.17968 -0.0352,-0.35937 -0.0625,-0.53906 -0.0273,-0.16016 -0.0352,-0.3125 0.004,-0.47656 0.0547,-0.2461 0.0859,-0.4961 -0.0625,-0.73047 -0.0234,-0.0391 -0.0391,-0.0898 -0.0352,-0.13281 0.0273,-0.35157 -0.0312,-0.70313 0.0547,-1.05078 0.004,-0.004 0.0195,-0.004 0.0508,-0.0156 0.0117,0.10156 0.0234,0.19922 0.0312,0.29688 0.0195,0.30468 0.0664,0.60156 0.16407,0.88281 0.15625,9.00781 4.76171,16.92578 11.70703,21.61719 0,0 -0.004,0 -0.004,0 -0.043,0.0195 -0.11328,0 -0.16406,-0.0195 z m -11.5586,-14.89062 c 0.0937,0.0781 0.0586,0.13281 0.0352,0.18359 -0.0117,-0.0508 -0.0195,-0.0977 -0.0352,-0.18359 z m 2.16016,-20.60547 c 0.0234,-0.0391 0.0664,-0.0703 0.0742,-0.10937 0.0625,-0.27344 0.20312,-0.51172 0.33203,-0.75391 0.043,-0.082 0.0977,-0.16016 0.12109,-0.24609 0.0664,-0.24219 0.21094,-0.45313 0.32032,-0.67969 0.1289,-0.26563 0.26953,-0.52734 0.42578,-0.78125 0.19531,-0.32031 0.39062,-0.64063 0.58594,-0.96484 0.0273,-0.0391 0.043,-0.082 0.0586,-0.125 0.11328,-0.26563 0.26172,-0.50782 0.42578,-0.74219 0.16797,-0.23047 0.32422,-0.46875 0.47656,-0.71094 0.2461,-0.39062 0.55078,-0.72266 0.90625,-1.01953 0.54688,-0.44922 1.08203,-0.91406 1.6211,-1.36719 0.19922,-0.17187 0.39843,-0.34375 0.63672,-0.45703 0.0391,-0.0234 0.0859,-0.043 0.11328,-0.0742 0.14453,-0.15234 0.32422,-0.2539 0.49609,-0.35937 0.34375,-0.22266 0.6875,-0.44922 1.03125,-0.67188 0.10938,-0.0703 0.22266,-0.14453 0.33203,-0.21484 -0.0117,0.0391 -0.0195,0.0859 -0.0469,0.10547 -0.27344,0.22265 -0.55469,0.4375 -0.83203,0.65625 -0.0703,0.0586 -0.14063,0.12109 -0.19922,0.1914 -0.16016,0.1875 -0.32032,0.375 -0.52735,0.52344 -0.2539,0.19141 -0.48828,0.41406 -0.72265,0.63281 -0.48047,0.45703 -0.96875,0.91407 -1.38672,1.4336 -0.21875,0.27734 -0.46094,0.52734 -0.71094,0.78125 -0.0234,0.0234 -0.043,0.0508 -0.0664,0.0781 -0.19531,0.26563 -0.39843,0.52344 -0.59375,0.79297 -0.32421,0.44141 -0.64453,0.88672 -0.96875,1.33203 -0.043,0.0586 -0.0859,0.11328 -0.12109,0.16797 -0.27344,0.44922 -0.5625,0.88672 -0.85937,1.31641 -0.0859,0.12109 -0.14844,0.25781 -0.22657,0.38672 -0.17187,0.26953 -0.34375,0.53515 -0.51953,0.80859 -0.0391,0.0625 -0.0977,0.0859 -0.17578,0.0703 0.004,0.0469 0.008,0.0937 0.0117,0.14063 -0.004,0 -0.008,0 -0.0117,0 0,-0.0469 0,-0.0937 0,-0.14063 z m 8.36328,-9.57812 c 0.0117,-0.008 0.0547,0 0.0586,0.0156 0.004,0.0273 0.0117,0.0703 -0.004,0.0859 -0.0703,0.0664 -0.15234,0.125 -0.23047,0.18359 -0.0391,-0.15625 0.0547,-0.23047 0.17578,-0.28515 z m 0.24219,0.84375 c 0.25391,-0.1875 0.51172,-0.375 0.77344,-0.5586 0.17968,-0.12109 0.36328,-0.23437 0.55078,-0.34765 0.36719,-0.22657 0.73828,-0.45313 1.10937,-0.67578 0.0859,-0.0547 0.17969,-0.10157 0.26563,-0.15235 0.15625,-0.0937 0.3125,-0.1914 0.46484,-0.28515 0.0781,-0.0508 0.15625,-0.0977 0.23438,-0.14454 0.53125,-0.28906 1.04687,-0.60937 1.63281,-0.78906 0.26953,-0.17969 0.58594,-0.25 0.88281,-0.36328 0.33203,-0.12891 0.67578,-0.20703 1.03125,-0.22266 0.13672,-0.008 0.26953,-0.0391 0.40235,-0.0625 0.0937,-0.0117 0.18359,-0.0352 0.27343,-0.0469 0.16407,-0.0273 0.33594,-0.0547 0.50391,-0.082 0.0859,-0.0117 0.17187,-0.0625 0.28125,0.0352 -0.46484,0.17188 -0.89844,0.35157 -1.33984,0.49219 -0.32422,0.10547 -0.66407,0.16406 -1,0.22656 -0.22657,0.0391 -0.45313,0.043 -0.67969,0.0781 -0.26563,0.0391 -0.47656,0.20703 -0.69141,0.35547 -0.0352,0.0234 -0.0625,0.0625 -0.0937,0.10156 -0.0977,0.125 -0.22656,0.19141 -0.3789,0.19141 -0.13672,0 -0.24219,0.043 -0.34375,0.1289 -0.125,0.10547 -0.27344,0.16797 -0.4336,0.19922 -0.13672,0.0273 -0.2539,0.0859 -0.36719,0.17578 -0.17578,0.14063 -0.35937,0.27735 -0.53515,0.41407 -0.0273,0.0234 -0.0586,0.0391 -0.0898,0.0508 -0.29296,0.10937 -0.54296,0.29687 -0.79296,0.47265 -0.17188,0.11719 -0.33204,0.2461 -0.53907,0.29297 -0.0742,0.0156 -0.14062,0.0703 -0.20703,0.11719 -0.1914,0.14062 -0.3789,0.29297 -0.57812,0.42969 -0.26953,0.19531 -0.53516,0.39453 -0.8125,0.5664 -0.35547,0.22266 -0.69532,0.45313 -0.96094,0.77735 -0.0937,0.10937 -0.22266,0.16015 -0.33984,0.21875 -0.13672,0.0703 -0.25,0.15234 -0.35547,0.26172 -0.17578,0.19531 -0.38282,0.35937 -0.53516,0.57812 -0.043,0.0625 -0.11328,0.11328 -0.18359,0.15234 -0.16016,0.0937 -0.28907,0.21875 -0.39063,0.375 -0.0273,0.0391 -0.0508,0.0781 -0.082,0.10938 -0.28906,0.29297 -0.58203,0.58203 -0.87109,0.86719 -0.0234,0.0234 -0.0547,0.0273 -0.10157,0.0508 0.0117,-0.0547 0.008,-0.0937 0.0273,-0.11328 0.1289,-0.14063 0.25781,-0.28516 0.39453,-0.42188 0.16016,-0.16406 0.32031,-0.32812 0.48047,-0.49219 0.28515,-0.29296 0.54687,-0.60937 0.85937,-0.8789 0.24219,-0.21094 0.46875,-0.4375 0.69922,-0.65625 0.26563,-0.25 0.54688,-0.47656 0.85938,-0.67188 0.26953,-0.16797 0.5039,-0.39062 0.7539,-0.58984 0.0703,-0.0586 0.14844,-0.10938 0.22266,-0.16406 z m -4.58984,4.26562 c 0.043,-0.0586 0.0898,-0.10937 0.14843,-0.17578 0.0742,0.11719 0.0195,0.19141 -0.0273,0.25781 -0.0234,0.0312 -0.0703,0.0508 -0.10938,0.0586 -0.0391,0.004 -0.0508,-0.082 -0.0117,-0.14063 z m 50.07421,15.71484 c -0.11328,0.0195 -0.14062,-0.16015 -0.25,-0.0273 -0.0273,-0.15625 -0.0273,-0.31641 -0.0859,-0.44531 -0.0898,-0.19531 -0.10938,-0.39844 -0.13282,-0.60156 -0.0195,-0.1875 -0.0508,-0.36719 -0.16015,-0.51954 -0.0859,-0.12109 -0.10156,-0.25 -0.10547,-0.39062 -0.008,-0.16016 -0.0273,-0.32031 -0.0586,-0.47656 -0.0234,-0.125 -0.0742,-0.24219 -0.10157,-0.36719 -0.0508,-0.20703 -0.11718,-0.41016 -0.22656,-0.60156 -0.0547,-0.0937 -0.0781,-0.21875 -0.0703,-0.33203 0.008,-0.14063 -0.0391,-0.2461 -0.11719,-0.34766 -0.0547,-0.0703 -0.10547,-0.14844 -0.16406,-0.22266 -0.0703,-0.0937 -0.11719,-0.1914 -0.0859,-0.3164 0.0391,-0.17188 -0.082,-0.33594 -0.0273,-0.50782 0.008,-0.0273 -0.0117,-0.0742 -0.0312,-0.0977 -0.17578,-0.1875 -0.23438,-0.41016 -0.21485,-0.66406 0.004,-0.0195 -0.008,-0.0469 -0.0156,-0.0664 -0.10938,-0.22656 -0.1211,-0.46484 -0.0937,-0.70703 0.004,-0.0547 -0.008,-0.11328 -0.0156,-0.16797 -0.0234,-0.28906 -0.0937,-0.56641 -0.13281,-0.84766 -0.0508,-0.35547 -0.19922,-0.65234 -0.35937,-0.95703 -0.0508,-0.0937 -0.0977,-0.18359 -0.13672,-0.27734 -0.17578,-0.39844 -0.39453,-0.77344 -0.5586,-1.17969 -0.13672,-0.33984 -0.3125,-0.66015 -0.4414,-1.0039 -0.20313,-0.53516 -0.40625,-1.07032 -0.67969,-1.57422 -0.13281,-0.24219 -0.26172,-0.48047 -0.39844,-0.72266 -0.0781,-0.13672 -0.16797,-0.26953 -0.24609,-0.41016 -0.0508,-0.0898 -0.0898,-0.18359 -0.14063,-0.27734 -0.0898,-0.16797 -0.19922,-0.33203 -0.28515,-0.50391 -0.13282,-0.26171 -0.30078,-0.48437 -0.51563,-0.68359 -0.3164,-0.29687 -0.63281,-0.58984 -0.91015,-0.92969 -0.12891,-0.16015 -0.26954,-0.3125 -0.42579,-0.44531 -0.35546,-0.30469 -0.67968,-0.63672 -1.03515,-0.94141 -0.21094,-0.17187 -0.3711,-0.40625 -0.63281,-0.51562 -0.21485,-0.24219 -0.47657,-0.42188 -0.71875,-0.62891 -0.26954,-0.23047 -0.52344,-0.47265 -0.82422,-0.66406 -0.0469,-0.0273 -0.0742,-0.0859 -0.11719,-0.12109 -0.10547,-0.10157 -0.21484,-0.19922 -0.33203,-0.29297 -0.16797,-0.13672 -0.33985,-0.26953 -0.50781,-0.40625 -0.0664,-0.0508 -0.125,-0.10156 -0.19141,-0.14453 -0.34766,-0.21875 -0.64063,-0.52344 -1.01563,-0.70313 -0.15625,-0.20703 -0.43359,-0.25 -0.60156,-0.4414 -0.043,-0.0508 -0.11719,-0.0703 -0.17969,-0.10157 -0.10156,-0.0508 -0.20703,-0.0977 -0.30468,-0.15234 -0.26563,-0.13672 -0.52344,-0.27734 -0.78907,-0.41797 -0.26171,-0.13281 -0.55078,-0.21875 -0.79296,-0.39453 -0.0352,-0.0273 -0.082,-0.0508 -0.125,-0.0547 -0.17969,-0.0117 -0.3125,-0.1289 -0.46094,-0.20703 -0.3125,-0.17187 -0.6211,-0.34375 -0.92188,-0.52734 -0.46875,-0.28516 -0.94531,-0.5586 -1.44531,-0.78125 -0.28125,-0.125 -0.57812,-0.21094 -0.87109,-0.30469 -0.19141,-0.0664 -0.39063,-0.10938 -0.58594,-0.17969 -0.38672,-0.13281 -0.76953,-0.28515 -1.16016,-0.41015 -0.53125,-0.16407 -1.0664,-0.33985 -1.60937,-0.46094 -0.50781,-0.11328 -1.03125,-0.16797 -1.55078,-0.23828 -0.21485,-0.0273 -0.4336,-0.0352 -0.64844,-0.043 -0.10547,-0.008 -0.20703,-0.004 -0.30469,0.0156 -0.17969,0.0391 -0.20312,0.0898 -0.21484,0.33594 0.10937,0.0937 0.23828,0.125 0.3789,0.10547 0.15235,-0.0195 0.28907,0.0117 0.42969,0.0781 0.13281,0.0625 0.27735,0.1211 0.42188,0.12891 0.19922,0.008 0.3789,0.0586 0.57031,0.10938 0.37109,0.0977 0.75,0.20312 1.12891,0.27734 0.58984,0.125 1.17187,0.28125 1.75,0.44531 0.29687,0.082 0.57812,0.22266 0.875,0.28906 0.30078,0.0664 0.58593,0.17188 0.86328,0.30079 0.0508,0.0234 0.10937,0.0312 0.16406,0.0508 0.11719,0.0391 0.24219,0.0664 0.35156,0.1289 0.21094,0.1211 0.4375,0.19532 0.66406,0.27344 0.0312,0.0156 0.0664,0.0195 0.0977,0.0352 0.36719,0.20703 0.76953,0.33593 1.17578,0.44922 0.0312,0.008 0.0664,0.0195 0.0859,0.0469 0.13672,0.16797 0.33203,0.24219 0.51953,0.32422 0.28906,0.12891 0.51563,0.38672 0.85156,0.42187 0.0273,0.004 0.0586,0.0391 0.082,0.0625 0.16797,0.20704 0.41407,0.32032 0.625,0.46485 0.3711,0.25 0.75391,0.47656 1.10938,0.74609 0.28906,0.22266 0.60937,0.39844 0.88281,0.64453 0.23047,0.20703 0.48438,0.38282 0.71875,0.58203 0.23438,0.20313 0.44922,0.41797 0.67578,0.62891 0.0742,0.0664 0.16797,0.125 0.14844,0.26953 -0.0859,0.004 -0.16797,0.0156 -0.24609,-0.0586 -0.0937,-0.082 -0.19532,-0.15625 -0.28907,-0.24219 -0.3789,-0.34766 -0.83593,-0.59375 -1.2539,-0.89062 -0.16406,-0.1211 -0.31641,-0.26172 -0.52344,-0.32032 -0.0703,-0.0195 -0.13281,-0.0859 -0.19531,-0.13672 -0.21875,-0.17968 -0.45313,-0.33984 -0.71094,-0.46484 -0.20312,-0.0977 -0.38281,-0.24609 -0.60937,-0.30078 -0.30469,-0.22656 -0.64844,-0.375 -1.00782,-0.5 -0.25781,-0.0898 -0.5039,-0.20703 -0.7539,-0.32422 -0.26953,-0.12109 -0.52735,-0.26172 -0.79688,-0.38672 -0.10547,-0.043 -0.21875,-0.082 -0.32812,-0.0859 -0.14063,-0.004 -0.26172,-0.0195 -0.3711,-0.13281 -0.0703,-0.0664 -0.17578,-0.12109 -0.27343,-0.13672 -0.3711,-0.0547 -0.69922,-0.28125 -1.08594,-0.28906 -0.0234,0 -0.043,-0.0117 -0.0625,-0.0195 -0.39844,-0.17578 -0.79297,-0.35547 -1.19141,-0.53125 -0.19922,-0.0859 -0.40234,-0.14453 -0.61719,-0.17969 -0.21875,-0.0352 -0.44531,-0.0742 -0.63281,-0.22656 -0.10156,-0.0781 -0.24609,-0.11719 -0.375,-0.15234 -0.29687,-0.082 -0.60547,-0.10938 -0.90625,-0.19141 -0.28125,-0.0742 -0.57812,-0.10156 -0.87109,-0.16016 -0.23438,-0.043 -0.47266,-0.0859 -0.69922,-0.16406 -0.16016,-0.0586 -0.32031,-0.10547 -0.48828,-0.14844 -0.10156,-0.0234 -0.20703,-0.0391 -0.29688,-0.0742 -0.36718,-0.14062 -0.75,-0.19531 -1.13672,-0.24218 -0.15625,-0.0156 -0.3125,-0.0508 -0.46093,-0.0977 -0.32813,-0.10156 -0.65235,-0.20703 -0.9961,-0.21484 -0.23047,-0.008 -0.45312,-0.0234 -0.67578,-0.0937 -0.11719,-0.0391 -0.25,-0.0391 -0.37109,-0.0625 -0.16797,-0.0273 -0.33594,-0.0625 -0.5,-0.0937 -0.0195,-0.004 -0.0312,-0.0312 -0.0586,-0.0625 0.0273,-0.0312 0.0508,-0.0742 0.082,-0.0859 0.0977,-0.0312 0.19921,-0.0586 0.29687,-0.0664 0.16016,-0.0195 0.32031,-0.043 0.47656,-0.0234 0.17188,0.0195 0.33985,0.0195 0.51172,0.004 0.17969,-0.0156 0.35547,-0.0234 0.53516,0.043 0.125,0.043 0.26562,0.0312 0.40234,0.043 0.0664,0.004 0.13672,-0.008 0.20313,0.008 0.21093,0.0391 0.41797,0.0977 0.6289,0.13672 0.15625,0.0273 0.31641,0.043 0.47657,0.043 0.0859,0 0.17968,-0.0352 0.25781,-0.0742 0.10937,-0.0508 0.125,-0.16406 0.0469,-0.25781 -0.0898,-0.10547 -0.20703,-0.17188 -0.33203,-0.23047 -0.0781,-0.043 -0.18359,-0.0937 -0.21094,-0.16797 -0.0625,-0.19141 -0.19921,-0.22656 -0.3789,-0.23047 -0.0781,0.0508 -0.15625,0.10938 -0.23047,0.16406 -0.14844,-0.0664 -0.21094,-0.1914 -0.28516,-0.30468 -0.1289,0.082 -0.2539,0.16015 -0.36328,0.23437 -0.32031,-0.10156 -0.32031,-0.10156 -0.46875,-0.34765 -0.0937,0.0859 -0.18359,0.16796 -0.29297,0.25781 -0.12109,-0.0703 -0.23047,-0.16406 -0.35547,-0.19922 -0.125,-0.0352 -0.26562,-0.008 -0.39453,-0.008 -0.0469,0.0625 -0.0859,0.11718 -0.13672,0.18359 -0.19531,-0.20703 -0.42187,-0.31641 -0.68359,-0.33984 -0.24219,0.33203 -0.16797,0.25781 -0.53516,0.39062 -0.16406,0.0586 -0.32421,0.11719 -0.48046,0.17969 -0.19141,0.0781 -0.37891,0.16016 -0.59766,0.0859 -0.0391,-0.0156 -0.0898,-0.0117 -0.13672,-0.008 -0.46484,0.0156 -0.92578,0.12891 -1.39453,0.11329 -0.0195,0 -0.043,0.004 -0.0664,0.0117 -0.39453,0.11329 -0.80468,0.14844 -1.20312,0.23047 -0.53125,0.11328 -1.08594,0.15625 -1.58203,0.41407 -0.0469,0.0273 -0.11328,0.0273 -0.16797,0.0234 -0.17578,-0.0195 -0.34375,0.0234 -0.50391,0.0781 -0.3789,0.125 -0.7539,0.26562 -1.13672,0.36719 -0.0781,0.0195 -0.15234,0.0586 -0.21875,0.10156 -0.17968,0.10937 -0.37109,0.17187 -0.57422,0.22265 -0.32812,0.082 -0.66796,0.15235 -0.95312,0.35547 -0.0273,0.0156 -0.0625,0.0273 -0.0977,0.0273 -0.32812,0.004 -0.62109,0.12109 -0.90234,0.27734 -0.0898,0.0469 -0.1875,0.082 -0.28125,0.12891 -0.0898,0.043 -0.1875,0.0898 -0.26563,0.14843 -0.24218,0.17579 -0.5,0.25391 -0.80078,0.23438 -0.24218,-0.0195 -0.48047,0.008 -0.6914,0.15234 -0.0469,0.0273 -0.10547,0.0352 -0.16016,0.0586 -0.42187,0.17578 -0.86719,0.27734 -1.26953,0.50781 -0.0469,0.0273 -0.10547,0.0391 -0.16016,0.0586 -0.35156,0.10938 -0.67187,0.28125 -0.98828,0.46094 -0.30859,0.17578 -0.62109,0.33984 -0.93359,0.5 -0.26172,0.14063 -0.52735,0.26953 -0.78516,0.41016 -0.23437,0.12109 -0.44922,0.27734 -0.6875,0.38672 -0.19922,0.0898 -0.39453,0.17968 -0.54687,0.33984 -0.0312,0.0312 -0.0781,0.043 -0.11719,0.0664 -0.0781,0.043 -0.16016,0.082 -0.23438,0.13281 -0.1875,0.13281 -0.36718,0.26953 -0.55468,0.40234 -0.043,0.0312 -0.0898,0.0742 -0.16797,0.0234 0.0508,-0.0742 0.0937,-0.15625 0.15234,-0.21484 0.32813,-0.33985 0.66797,-0.65625 0.98047,-1.00391 0.17188,-0.1875 0.38672,-0.31641 0.55078,-0.51172 0.082,-0.0937 0.17578,-0.17578 0.26953,-0.26172 0.38282,-0.33984 0.76953,-0.67969 1.19141,-0.97656 0.26562,-0.19141 0.51953,-0.41016 0.78906,-0.59766 0.41797,-0.28125 0.84375,-0.55078 1.26563,-0.82031 0.45312,-0.28516 0.91406,-0.55859 1.37109,-0.84375 0.11328,-0.0703 0.21484,-0.16797 0.33203,-0.23437 0.32813,-0.17969 0.66016,-0.35547 0.99219,-0.53125 0.61719,-0.32422 1.23437,-0.64063 1.875,-0.91407 0.33984,-0.14062 0.67969,-0.27343 1.01953,-0.39843 0.10938,-0.0391 0.21875,-0.15235 0.35156,-0.0547 0.0117,0.008 0.0508,-0.0117 0.0586,-0.0234 0.0469,-0.11719 0.15625,-0.12109 0.25,-0.15234 0.63281,-0.19141 1.26172,-0.40625 1.89843,-0.57422 0.69532,-0.1875 1.39844,-0.34375 2.10157,-0.46485 0.64453,-0.10937 1.28125,-0.23437 1.92578,-0.30468 0.77344,-0.082 1.53906,-0.22266 2.3125,-0.27344 0.0586,-0.004 0.11719,-0.004 0.16797,-0.0273 0.13281,-0.0586 0.26953,-0.0469 0.40625,-0.0469 0.12109,0.004 0.25,0.008 0.375,-0.004 0.38672,-0.0352 0.77343,-0.008 1.15625,-0.004 0.40234,0.008 0.80078,0.0156 1.20312,0.0156 0.0977,0 0.20313,-0.0195 0.30078,-0.043 0.0703,-0.0195 0.10547,-0.0859 0.10938,-0.16015 0.004,-0.0781 -0.0312,-0.12891 -0.10547,-0.15625 -0.0781,-0.0273 -0.15625,-0.0625 -0.23047,-0.0625 -0.26562,-0.004 -0.52344,-0.0273 -0.77344,-0.11719 -0.0195,-0.008 -0.0469,-0.004 -0.0664,-0.004 -0.32813,0.0312 -0.65625,0.0586 -1.02344,0.0898 -0.20703,-0.14063 -0.48438,-0.1875 -0.77344,-0.20313 -0.16797,-0.008 -0.33594,-0.0469 -0.50781,-0.0703 -0.0664,-0.0117 -0.13672,-0.0234 -0.19922,-0.0156 -0.16016,0.0156 -0.31641,-0.004 -0.47656,-0.008 -0.58203,-0.0273 -1.16406,-0.0586 -1.7461,0.0273 -0.10937,0.0156 -0.22656,0.0234 -0.33984,0.0195 -0.47266,-0.0117 -0.92969,0.082 -1.39062,0.16015 -0.53907,0.0937 -1.0625,0.26954 -1.60547,0.34375 -0.0469,0.004 -0.0898,0.0234 -0.13282,0.0352 -0.17578,0.0508 -0.35156,0.10156 -0.52343,0.14844 -0.32032,0.0937 -0.64063,0.17187 -0.95313,0.28515 -0.42969,0.15235 -0.83594,0.36719 -1.27734,0.48438 -0.043,0.0117 -0.0898,0.0273 -0.1211,0.0586 -0.13671,0.11328 -0.3125,0.13282 -0.46875,0.19922 -0.16015,0.0625 -0.32421,0.11328 -0.47656,0.1836 -0.55469,0.25 -1.10156,0.5 -1.65234,0.7539 -0.42578,0.19141 -0.85938,0.36328 -1.26563,0.58594 -0.33203,0.17969 -0.64843,0.38281 -0.98828,0.54687 -0.0898,0.0469 -0.1914,0.0664 -0.27344,0.125 -0.23828,0.17579 -0.47656,0.35938 -0.75781,0.46094 -0.0391,0.0195 -0.0742,0.0547 -0.10937,0.082 -0.19141,0.14063 -0.38672,0.28516 -0.57813,0.42969 -0.10937,0.082 -0.21875,0.16797 -0.32031,0.25781 -0.3125,0.26563 -0.63281,0.52735 -0.93359,0.8086 -0.2461,0.23047 -0.53907,0.41797 -0.73047,0.71093 -0.0312,0.043 -0.0898,0.0703 -0.13282,0.10547 -0.082,0.0625 -0.16796,0.11719 -0.24218,0.19141 -0.36328,0.33203 -0.76563,0.61719 -1.10547,0.97266 -0.17969,0.1875 -0.40625,0.33203 -0.58594,0.52734 -0.17187,0.19141 -0.38281,0.35156 -0.50781,0.58594 -0.0195,0.0312 -0.0547,0.0469 -0.0781,0.0703 -0.11328,0.11328 -0.23047,0.22266 -0.34375,0.33203 -0.24609,0.24219 -0.47265,0.49609 -0.69922,0.75391 -0.27343,0.30859 -0.57812,0.58984 -0.86718,0.88281 -0.0625,0.0664 -0.125,0.13281 -0.17969,0.20703 -0.19141,0.25781 -0.375,0.51563 -0.55469,0.78125 -0.24219,0.34766 -0.47265,0.71094 -0.79297,0.99609 -0.4414,0.39454 -0.78906,0.88282 -1.20312,1.30469 -0.28125,0.28516 -0.51953,0.60938 -0.77735,0.91797 -0.0273,0.0312 -0.0547,0.0703 -0.082,0.10938 -0.15625,0.22265 -0.32031,0.4414 -0.46093,0.67578 -0.26954,0.45312 -0.57813,0.8789 -0.86719,1.32031 -0.11719,0.16797 -0.22656,0.34375 -0.33985,0.51953 -0.33984,0.53906 -0.74609,1.04297 -1.01171,1.63281 -0.0352,0.0703 -0.0977,0.125 -0.14063,0.19141 -0.17969,0.29297 -0.39453,0.55859 -0.5,0.89453 -0.125,0.37891 -0.28125,0.75 -0.44531,1.11719 -0.16406,0.35547 -0.32422,0.70703 -0.44922,1.08203 -0.11328,0.34375 -0.24219,0.6875 -0.35547,1.03906 -0.0742,0.21484 -0.17969,0.42188 -0.19531,0.65625 0,0.0547 -0.0391,0.10547 -0.0586,0.16016 -0.043,0.12109 -0.0977,0.23437 -0.1289,0.35547 -0.11719,0.47656 -0.25391,0.95312 -0.35156,1.43359 -0.0898,0.44141 -0.15625,0.87891 -0.22266,1.32031 -0.0781,0.48828 -0.12109,0.98047 -0.19922,1.46875 -0.0977,0.60938 -0.15625,1.22656 -0.14062,1.85156 0.008,0.26172 -0.0156,0.52735 -0.0312,0.78907 -0.0273,0.53906 -0.0781,1.07812 -0.082,1.61718 -0.004,0.29688 -0.0273,0.59375 -0.0273,0.88672 0,0.57813 0.0156,1.15235 0.0781,1.72266 0.0859,0.79297 0.27343,1.5625 0.48828,2.32422 0.0117,0.0352 0.0508,0.0664 0.0937,0.12109 0.0586,-0.14453 0.0977,-0.2539 0.043,-0.38672 -0.0312,-0.0859 -0.0312,-0.18359 -0.0664,-0.26562 -0.0859,-0.20313 -0.0625,-0.39844 0.0195,-0.59766 0.0781,-0.21094 0.0859,-0.44531 -0.0117,-0.64062 -0.0859,-0.16797 -0.0977,-0.3125 -0.0664,-0.49219 0.0273,-0.17578 0.0273,-0.35156 -0.0508,-0.53516 -0.0586,-0.14843 -0.0273,-0.33203 -0.0391,-0.5039 -0.008,-0.16797 0.0234,-0.35938 -0.0391,-0.50391 -0.0625,-0.15625 -0.0469,-0.28125 -0.0352,-0.42578 0.0156,-0.19141 0.0469,-0.39844 -0.008,-0.57422 -0.11328,-0.38281 -0.043,-0.77344 -0.10547,-1.15625 -0.004,-0.0195 0.004,-0.0469 0.008,-0.0664 0.082,-0.32812 0.043,-0.66406 0.043,-0.99609 0.004,-0.40234 -0.0156,-0.80469 0.11719,-1.19141 0.0195,-0.0508 0.0273,-0.10937 0.0312,-0.16796 0.0156,-0.39063 0.12891,-0.76563 0.19922,-1.14844 0.0547,-0.30469 0.10156,-0.60938 0.14844,-0.91797 0.0117,-0.0586 0.0156,-0.11328 0.0312,-0.16797 0.0625,-0.23437 0.125,-0.46484 0.19531,-0.69141 0.11328,-0.38671 0.23437,-0.76953 0.34766,-1.15234 0.0508,-0.16406 0.0937,-0.32812 0.14062,-0.49609 0.0781,-0.29688 0.23047,-0.57422 0.24609,-0.89063 0.004,-0.0547 0.0312,-0.11328 0.0547,-0.16406 0.25391,-0.51563 0.39063,-1.07813 0.64844,-1.59375 0.12109,-0.23828 0.15625,-0.51563 0.3125,-0.75 0.12891,-0.19922 0.21875,-0.42578 0.32031,-0.64453 0.13281,-0.27734 0.32422,-0.52734 0.42969,-0.82422 0.10547,-0.3125 0.23437,-0.62109 0.40625,-0.90625 0.10937,-0.17187 0.19531,-0.36328 0.30469,-0.53516 0.21875,-0.33593 0.44531,-0.66796 0.67187,-0.99609 0.24219,-0.35156 0.47656,-0.70312 0.73047,-1.04297 0.10156,-0.14062 0.19922,-0.27734 0.29688,-0.41797 0.13281,-0.19922 0.29296,-0.3789 0.44921,-0.5625 0.0273,-0.0273 0.0859,-0.0312 0.125,-0.0469 0.004,-0.004 0.004,-0.008 0.004,-0.008 0,0 0.004,0 0.008,0 -0.0664,0.12109 -0.13672,0.23046 -0.19531,0.35156 -0.0508,0.10547 -0.0781,0.21875 -0.12891,0.32031 -0.24218,0.48438 -0.45312,0.98047 -0.59765,1.5 -0.0156,0.0547 -0.0391,0.10938 -0.0625,0.16016 -0.1836,0.32031 -0.28125,0.67578 -0.36719,1.03125 -0.0195,0.0781 -0.043,0.15625 -0.0703,0.23047 -0.0469,0.15234 -0.10156,0.30468 -0.14844,0.45703 -0.0703,0.23047 -0.13672,0.46484 -0.20312,0.69531 -0.10938,0.39844 -0.23047,0.79297 -0.32813,1.1914 -0.12891,0.52344 -0.24609,1.05079 -0.35937,1.57813 -0.0547,0.25391 -0.0898,0.51562 -0.12891,0.77734 -0.0469,0.30469 -0.0859,0.60938 -0.14063,0.91407 -0.0586,0.3164 -0.14062,0.6289 -0.19531,0.9414 -0.0273,0.16797 -0.0977,0.33203 -0.0586,0.51172 0.0156,0.0508 -0.004,0.11328 -0.0234,0.16797 -0.14844,0.44922 -0.23828,0.90625 -0.28125,1.37891 -0.0273,0.30468 -0.0664,0.62109 -0.16797,0.90625 -0.125,0.33984 -0.16797,0.6914 -0.20312,1.04296 -0.0742,0.66797 -0.0937,1.35157 -0.1875,2.01954 -0.0703,0.48046 0.004,0.96484 -0.11719,1.4375 -0.0117,0.043 0.008,0.0937 0.008,0.13671 -0.008,0.39063 0.008,0.78516 -0.0391,1.17188 -0.043,0.40625 -0.043,0.80859 0.0312,1.19922 0.082,0.4414 0.0195,0.89844 0.16016,1.32812 -0.004,0.48047 0.19921,0.91797 0.26171,1.38282 0.004,0.043 0.0312,0.0859 0.0508,0.125 0.1289,0.34375 0.22656,0.69531 0.27343,1.0625 0.0312,0.20312 0.0625,0.40625 0.0977,0.60937 0.0664,0.37109 0.13281,0.74219 0.20703,1.11328 0.0273,0.16016 0.0547,0.31641 0.10547,0.46875 0.0664,0.20313 0.16016,0.40235 0.23437,0.60547 0.0469,0.12891 0.0625,0.26563 0.15235,0.375 0.008,0.33984 0.14062,0.64844 0.2539,0.95703 0.125,0.35547 0.25,0.71485 0.44141,1.04297 0.0703,0.11719 0.10938,0.25391 0.16016,0.37891 0.12109,0.29687 0.23437,0.59765 0.36328,0.88672 0.20312,0.44921 0.4414,0.8789 0.625,1.33593 0.0352,0.0977 0.0898,0.1875 0.14453,0.27344 0.26562,0.45703 0.55078,0.90234 0.79687,1.36719 0.16797,0.3164 0.37891,0.59765 0.58985,0.8789 0.25781,0.33985 0.57031,0.63282 0.76172,1.01563 0.0312,0.0586 0.0703,0.12109 0.12109,0.16797 0.20703,0.17187 0.32422,0.40625 0.47266,0.62109 0.0469,0.0664 0.0859,0.14063 0.11328,0.21485 0.0391,0.11718 0.008,0.23046 -0.0703,0.32421 -0.0703,0.0781 -0.19922,0.082 -0.31641,0.0195 -0.043,-0.0195 -0.0898,-0.0391 -0.11719,-0.0742 -0.14844,-0.19922 -0.39453,-0.3086 -0.48047,-0.57032 -0.0234,-0.0781 -0.11328,-0.13281 -0.17578,-0.20312 -0.19922,-0.21484 -0.39844,-0.42578 -0.54297,-0.69141 -0.13672,-0.26172 -0.32812,-0.5 -0.62109,-0.61718 -0.0977,-0.0352 -0.18359,-0.0859 -0.24219,-0.17969 -0.0195,-0.0312 -0.0664,-0.0469 -0.11328,-0.0781 -0.0234,0.11328 -0.0234,0.20703 -0.0625,0.28516 -0.0586,0.11328 -0.0508,0.21875 0,0.32812 0.0547,0.11329 0.10547,0.23438 0.17969,0.33204 0.16797,0.21484 0.33984,0.42968 0.52734,0.63281 0.1875,0.21094 0.41797,0.39062 0.59766,0.61719 0.23047,0.28515 0.5,0.53125 0.76562,0.78125 0.41797,0.39062 0.82422,0.78906 1.27735,1.14453 0.17968,0.14453 0.35547,0.28906 0.5625,0.38672 0.0937,0.043 0.17968,0.0859 0.24218,0.17968 0.0391,0.0664 0.125,0.10157 0.1836,0.15235 0.16797,0.14062 0.33984,0.27343 0.49219,0.42187 0.21875,0.21875 0.42187,0.45313 0.63671,0.67578 0.0469,0.0508 0.0898,0.10938 0.15235,0.14063 0.24609,0.13672 0.41406,0.35937 0.59375,0.5625 0.20312,0.21875 0.42187,0.41797 0.65625,0.59765 0.19922,0.15625 0.40625,0.29297 0.625,0.42188 0.2539,0.14453 0.46875,0.35937 0.70703,0.53516 0.125,0.0937 0.26172,0.17968 0.39844,0.26171 0.19531,0.11719 0.40625,0.21875 0.58593,0.35547 0.30079,0.23047 0.59766,0.46094 0.96485,0.57813 0.043,0.0117 0.082,0.0391 0.12109,0.0586 0.58985,0.24219 1.14844,0.5586 1.75781,0.75781 0.33204,0.11329 0.66797,0.23047 0.98047,0.39454 0.0703,0.0391 0.15235,0.0469 0.23047,0.0703 0.14063,0.0352 0.28906,0.0664 0.42578,0.11328 0.15235,0.0469 0.30078,0.11328 0.44922,0.16406 0.67969,0.21875 1.38672,0.28125 2.08985,0.33985 0.30859,0.0195 0.61328,0.0586 0.91406,0.12109 0.39453,0.0781 0.78515,0.15625 1.17578,0.23828 0.21484,0.043 0.42578,0.0937 0.63281,0.14453 0.2461,0.0547 0.48828,0.1211 0.73438,0.16797 0.2539,0.0508 0.51953,0.0312 0.76953,0.12109 0.0508,0.0156 0.11719,0.004 0.17187,0.004 0.082,0.004 0.16407,-0.008 0.23828,0.0117 0.1836,0.0547 0.35938,0.0273 0.53907,-0.043 0.25,0.16406 0.53125,0.10938 0.80078,0.0977 0.11328,-0.008 0.21875,-0.0117 0.33203,0.0312 0.14844,0.0547 0.3125,0.0898 0.46875,0.0859 0.20703,-0.004 0.40234,0.0352 0.60156,0.0703 0.0586,0.0117 0.1211,0.0352 0.16797,0.0234 0.12891,-0.0469 0.24609,0 0.36719,0.0156 0.1914,0.0312 0.38281,0.0547 0.57812,0.0664 0.33203,0.0195 0.66407,0.0352 0.99219,0.0352 0.24219,0.004 0.48828,0.0117 0.71484,-0.043 0.22657,-0.0547 0.45313,-0.0664 0.67969,-0.0742 0.29297,-0.004 0.57813,-0.10546 0.87891,-0.0703 0.0312,0.004 0.0664,-0.0156 0.0977,-0.0195 0.3086,-0.0352 0.61329,-0.0937 0.92188,-0.0937 0.35937,0 0.69531,-0.10156 1.03516,-0.17969 0.0937,-0.0195 0.17968,-0.0586 0.26953,-0.0547 0.15234,0.004 0.29297,-0.0352 0.42968,-0.0977 0.19922,-0.0977 0.41016,-0.13672 0.62891,-0.15234 0.10156,-0.008 0.20313,-0.0273 0.30078,-0.0547 0.28516,-0.0781 0.57031,-0.16406 0.85547,-0.24219 0.40625,-0.11328 0.80859,-0.22656 1.19141,-0.41016 0.32031,-0.15234 0.64843,-0.29296 0.98828,-0.38281 0.36719,-0.0937 0.67187,-0.27344 0.95312,-0.51562 0.11719,-0.10547 0.27735,-0.17578 0.3711,-0.29297 0.12109,-0.15235 0.26953,-0.14453 0.42187,-0.16016 0.0117,-0.004 0.0195,-0.0117 0.0312,-0.0156 0.14063,-0.0352 0.22266,-0.15625 0.33594,-0.23047 0.125,-0.0781 0.29297,-0.0586 0.39453,-0.19141 0.043,-0.0469 0.11328,-0.0742 0.17188,-0.10937 0.14062,-0.0781 0.28125,-0.12891 0.44531,-0.15235 0.16406,-0.0234 0.3125,-0.12109 0.47656,-0.14453 0.15234,-0.0195 0.27734,-0.10156 0.41406,-0.14844 0.0547,-0.0156 0.1211,-0.10156 0.11719,-0.15234 0,-0.14062 0.15625,-0.082 0.18359,-0.16797 0.0586,0.0195 0.1211,0.0352 0.17579,0.0508 0.0781,-0.0664 0.14453,-0.15625 0.23437,-0.19531 0.28516,-0.12891 0.55859,-0.29297 0.82031,-0.46094 0.15625,-0.0977 0.32032,-0.17187 0.49219,-0.22656 0.0312,-0.0117 0.0664,-0.0195 0.0898,-0.0391 0.28516,-0.21094 0.56641,-0.42188 0.85157,-0.62891 0.14843,-0.10937 0.28515,-0.25 0.45312,-0.30859 0.20313,-0.0742 0.34766,-0.21875 0.51172,-0.33594 0.23438,-0.16016 0.45703,-0.33594 0.67578,-0.51562 0.4375,-0.35157 0.875,-0.70313 1.29297,-1.07422 0.37109,-0.32422 0.71484,-0.67578 1.12891,-0.94141 0.0742,-0.0508 0.14453,-0.11328 0.21093,-0.17969 0.14454,-0.14062 0.28516,-0.29297 0.4375,-0.42968 0.17188,-0.16797 0.35157,-0.32813 0.52735,-0.49219 0.15234,-0.13672 0.29687,-0.28125 0.44922,-0.41797 0.18359,-0.16016 0.35547,-0.32422 0.47656,-0.53906 0.0469,-0.0859 0.125,-0.15625 0.20312,-0.23047 0.2461,-0.23438 0.53516,-0.42969 0.66797,-0.76563 0.0117,-0.0312 0.0469,-0.0508 0.0664,-0.082 0.17969,-0.27734 0.34766,-0.5664 0.58203,-0.80078 0.0312,-0.0312 0.0508,-0.0781 0.0742,-0.11719 0.30469,-0.48437 0.62109,-0.96093 0.91406,-1.45312 0.17188,-0.28125 0.3086,-0.58594 0.46094,-0.88281 0.0195,-0.0391 0.0352,-0.0859 0.0312,-0.13282 -0.008,-0.13672 0.0625,-0.24609 0.12891,-0.34765 0.14453,-0.20703 0.22656,-0.44922 0.39843,-0.64063 0.0469,-0.0508 0.0703,-0.11719 0.0977,-0.18359 0.25391,-0.58985 0.50781,-1.17578 0.75781,-1.76563 0.043,-0.0937 0.0664,-0.19531 0.0898,-0.29297 0.15625,-0.58984 0.30468,-1.17968 0.46093,-1.76562 0.0391,-0.14453 0.0742,-0.28516 0.0937,-0.43359 0.0156,-0.13282 -0.0117,-0.28125 0.11719,-0.38282 0.0273,-0.0234 0.0352,-0.082 0.0352,-0.1289 0.008,-0.11719 0.0312,-0.22266 0.0977,-0.32422 0.0508,-0.0742 0.0703,-0.17188 0.0859,-0.25781 0.0312,-0.19532 0.043,-0.38672 0.0781,-0.57813 0.0352,-0.20312 0.0898,-0.40234 0.1289,-0.60547 0.0273,-0.11328 0.0469,-0.22265 0.0664,-0.33594 0.0547,-0.28125 0.10937,-0.5664 0.16406,-0.84375 0.043,-0.23828 0.082,-0.47656 0.12109,-0.71093 0.0391,-0.22657 0.10547,-0.45313 0.10938,-0.67578 0,-0.51954 0.10547,-1.02735 0.12109,-1.54297 0.0117,-0.47266 0.0312,-0.94141 -0.0352,-1.41016 -0.0352,-0.23828 -0.0586,-0.46875 0,-0.71484 0.0352,-0.13672 0.0234,-0.3086 -0.0234,-0.44141 -0.0937,-0.23828 -0.0547,-0.48047 -0.0352,-0.71094 0.0195,-0.1875 -0.0312,-0.39453 0.0742,-0.57031 0.008,-0.0195 0.004,-0.0469 -0.004,-0.0664 -0.11719,-0.30859 -0.043,-0.61328 0.0352,-0.91015 0.0273,-0.10547 0.0273,-0.19141 -0.0117,-0.29688 -0.0664,-0.17968 -0.16015,-0.35937 -0.10156,-0.5664 0.0547,-0.0469 0.10547,-0.0977 0.18359,-0.16407"
         fill-opacity="1"
         fill-rule="nonzero"
         id="path18289"
         style="fill:#008080" />
    </g>
    <path
       fill="#100f0d"
       d="m 180.96875,110.6875 c 0.13672,0.0859 0.27344,0.16406 0.40625,0.25 0.10547,0.0703 0.20703,0.14844 0.3125,0.21484 0.71875,0.44532 1.42578,0.90625 2.10937,1.40625 0.21094,0.15625 0.42188,0.3086 0.625,0.47266 0.082,0.0664 0.14844,0.14453 0.23047,0.20703 0.44141,0.32422 0.86719,0.66797 1.25782,1.05469 0.42968,0.42969 0.89062,0.82422 1.28125,1.29297 0.13671,0.16797 0.32421,0.28906 0.45703,0.45703 0.16406,0.20312 0.3789,0.35937 0.51953,0.58984 0.11719,0.19532 0.27734,0.35938 0.42578,0.53907 0.28906,0.35156 0.62109,0.67187 0.83203,1.08984 0.0156,0.0273 0.0312,0.0625 0.0586,0.0781 0.15625,0.10157 0.21485,0.26563 0.30079,0.41016 0.0703,0.12109 0.13671,0.24219 0.21093,0.35547 0.23828,0.37891 0.53907,0.70703 0.82032,1.05469 0.0508,0.0625 0.11328,0.11718 0.15234,0.1875 0.24609,0.42578 0.51172,0.83984 0.80469,1.23437 0.0703,0.0898 0.1289,0.19141 0.18359,0.28906 0.11719,0.19532 0.22656,0.39454 0.33984,0.59375 0.0781,0.14063 0.15625,0.28125 0.23047,0.42188 0.0703,0.12891 0.125,0.26953 0.19922,0.39844 0.19531,0.3125 0.37891,0.6289 0.46485,0.99218 0.0156,0.0664 0.0547,0.125 0.0859,0.1875 0.0898,0.17188 0.1836,0.34375 0.26563,0.51563 0.14844,0.3125 0.29687,0.625 0.42969,0.94141 0.14453,0.34765 0.3164,0.6875 0.34765,1.07421 0.008,0.11329 0.0312,0.1211 0.22266,0.1211 0.0352,-0.0742 0.0898,-0.14844 0.0117,-0.21875 -0.11719,-0.11328 -0.11719,-0.26953 -0.14844,-0.41406 -0.0312,-0.12891 -0.0469,-0.26563 -0.0742,-0.40235 0.0273,-0.0391 0.0547,-0.0898 0.0977,-0.16797 -0.082,-0.11328 -0.1211,-0.22656 -0.125,-0.35937 -0.0117,-0.29688 -0.1211,-0.58203 -0.0937,-0.88281 0,-0.0547 -0.0352,-0.10938 -0.0508,-0.16407 -0.0625,-0.20703 -0.1211,-0.41797 -0.1836,-0.625 -0.0859,-0.29687 -0.19922,-0.58203 -0.3789,-0.83984 -0.14844,-0.20313 -0.28125,-0.41797 -0.26954,-0.6875 0.004,-0.0547 -0.0156,-0.11328 -0.0391,-0.16797 -0.0664,-0.17969 -0.14453,-0.35937 -0.21484,-0.53906 -0.15625,-0.42969 -0.35547,-0.83985 -0.52735,-1.26563 -0.22265,-0.53515 -0.5039,-1.05078 -0.76562,-1.57031 -0.17188,-0.33984 -0.38281,-0.65234 -0.69141,-0.87891 -0.0273,-0.0195 -0.0547,-0.0508 -0.0625,-0.0781 -0.0703,-0.19141 -0.23047,-0.3125 -0.35937,-0.45703 -0.0586,-0.0703 -0.14063,-0.125 -0.1836,-0.20703 -0.17187,-0.29688 -0.48046,-0.48438 -0.65625,-0.77344 -0.0898,-0.14844 -0.19531,-0.29688 -0.33203,-0.39063 -0.22265,-0.15625 -0.36718,-0.375 -0.55078,-0.55859 -0.22656,-0.23437 -0.48047,-0.42578 -0.73047,-0.62109 -0.20703,-0.16016 -0.41015,-0.32422 -0.60547,-0.4961 -0.35937,-0.32031 -0.73046,-0.6289 -1.17578,-0.82422 -0.20312,-0.0898 -0.4375,-0.14843 -0.54687,-0.38281 -0.0117,-0.0234 -0.0586,-0.0391 -0.0859,-0.0547 -0.20703,-0.13671 -0.41406,-0.27343 -0.64453,-0.375 -0.21094,-0.0977 -0.4375,-0.1875 -0.52344,-0.42187 -0.11719,-0.008 -0.21875,-0.0156 -0.32031,-0.0234 -0.0391,-0.10547 -0.0703,-0.19922 -0.10156,-0.27344 -0.0312,-0.0156 -0.043,-0.0234 -0.0508,-0.0234 -0.0234,0 -0.0469,0.004 -0.0703,0.008 -0.20703,0.0352 -0.21484,0.0352 -0.28515,-0.16016 -0.0352,-0.0977 -0.0977,-0.13281 -0.17969,-0.11328 -0.23047,0.0469 -0.39453,-0.0586 -0.54688,-0.1914 0.008,-0.0664 0.0156,-0.1211 0.0234,-0.17579 -0.11328,-0.0117 -0.21875,-0.0234 -0.27344,-0.125 -0.0469,-0.0898 -0.13281,-0.11718 -0.20703,-0.17187 -0.20703,-0.15234 -0.45312,-0.21094 -0.67187,-0.33594 -0.10938,-0.0625 -0.21875,-0.12109 -0.35547,-0.0859 -0.0391,0.0117 -0.0937,0 -0.12891,-0.0234 -0.16015,-0.10938 -0.35156,-0.17188 -0.46484,-0.34375 -0.0117,-0.0156 -0.043,-0.0156 -0.082,-0.0312 -0.0664,0.0234 -0.14844,0.0586 -0.22266,0.0898 -0.0117,0.21875 0.14453,0.28906 0.27344,0.375"
       fill-opacity="1"
       fill-rule="nonzero"
       id="path18293"
       style="fill:#008080" />
    <path
       fill="#100f0d"
       d="m 173.26172,107.91016 c 0.3125,0.0547 0.60547,0.1875 0.91797,0.25781 0.28906,0.0664 0.57031,0.16016 0.85547,0.23437 0.4375,0.1211 0.88671,0.1836 1.32031,0.32813 0.40625,0.13281 0.82812,0.22266 1.21875,0.41797 0.0469,0.0234 0.10937,0.0234 0.16406,0.0391 0.0664,0.0156 0.13672,0.0273 0.19531,0.0586 0.17188,0.11329 0.35157,0.21094 0.5586,0.25 0.21484,0.0391 0.38281,0.1836 0.57812,0.26563 0.16797,0.0703 0.32813,0.15625 0.4961,0.23047 0.21484,0.10156 0.4375,0.19922 0.65625,0.29297 0.0937,0.043 0.1914,0.0859 0.3164,0.004 -0.043,-0.1914 -0.13281,-0.34765 -0.3164,-0.44922 -0.1875,-0.10546 -0.38282,-0.19921 -0.54688,-0.34375 -0.0547,-0.0508 -0.14453,-0.0664 -0.21875,-0.0859 -0.19531,-0.0547 -0.39844,-0.0977 -0.59375,-0.15235 -0.082,-0.0195 -0.14844,-0.0547 -0.1875,-0.13672 -0.0547,-0.10546 -0.15234,-0.14062 -0.25781,-0.11718 -0.17578,0.0352 -0.33985,-0.004 -0.4961,-0.0664 -0.14453,-0.0547 -0.28906,-0.0625 -0.4414,-0.0352 -0.21094,-0.23828 -0.40625,-0.39843 -0.71485,-0.40625 -0.1875,-0.008 -0.36718,-0.10546 -0.54296,-0.1875 -0.31641,-0.14843 -0.67188,-0.21484 -0.92579,-0.49218 -0.20312,0.0898 -0.38281,0.0312 -0.55859,-0.0586 -0.043,-0.0195 -0.0859,-0.0664 -0.12109,-0.0586 -0.20703,0.0469 -0.3711,-0.082 -0.5586,-0.11719 -0.0859,-0.0156 -0.18359,-0.0273 -0.26953,-0.004 -0.20312,0.0547 -0.39844,0.0586 -0.60156,-0.008 -0.12891,-0.043 -0.23047,0.0156 -0.34375,0.0977 0.10547,0.17578 0.26953,0.21875 0.41797,0.24219"
       fill-opacity="1"
       fill-rule="nonzero"
       id="path18295"
       style="fill:#008080" />
    <path
       fill="#100f0d"
       d="m 140.76562,155.55859 c -0.13671,-0.0234 -0.25,-0.0625 -0.26171,-0.22656 0,-0.0312 -0.008,-0.0781 -0.0312,-0.0937 -0.13672,-0.0898 -0.17188,-0.23047 -0.21875,-0.37109 -0.008,-0.0312 -0.0391,-0.0625 -0.0664,-0.0781 -0.12891,-0.0508 -0.16797,-0.17578 -0.22266,-0.28906 -0.082,-0.16797 -0.0977,-0.37891 -0.29297,-0.48438 -0.0195,-0.008 -0.0273,-0.0352 -0.0352,-0.0547 -0.0859,-0.24219 -0.29297,-0.40235 -0.39453,-0.62891 -0.004,-0.008 -0.0195,-0.004 -0.0312,-0.004 -0.0547,0.14063 -0.0586,0.14063 -0.0312,0.21094 0.0664,0.15625 0.13672,0.31641 0.21093,0.46875 0.0937,0.19531 0.16407,0.41797 0.30469,0.57422 0.20313,0.22266 0.34766,0.47266 0.50391,0.72266 0.13672,0.22265 0.27734,0.44531 0.5,0.59375 0.0312,0.0273 0.0625,0.0781 0.0664,0.11718 0.0156,0.17579 0.14844,0.28516 0.23438,0.41407 0.0625,0.0977 0.17578,0.19922 0.35156,0.21875 -0.043,-0.26172 -0.20703,-0.39453 -0.33594,-0.54688 -0.13671,-0.16015 -0.25781,-0.32422 -0.25,-0.54297"
       fill-opacity="1"
       fill-rule="nonzero"
       id="path18297"
       style="fill:#008080" />
    <path
       fill="#100f0d"
       d="m 137.01172,147.73828 c 0.0391,-0.28516 -0.15235,-0.47266 -0.29297,-0.6875 0.0234,0.0977 0.0547,0.19531 0.0664,0.29297 0.0156,0.10937 0.008,0.23047 0.0273,0.33984 0.0156,0.0898 0.0352,0.1875 0.0859,0.25782 0.10156,0.1289 0.13281,0.28125 0.17578,0.43359 0.008,0.0273 0.0352,0.0508 0.0508,0.0742 0.0273,-0.0156 0.0586,-0.0234 0.0625,-0.0352 0.0156,-0.13672 -0.008,-0.26953 -0.0859,-0.38672 -0.0586,-0.0898 -0.10547,-0.18359 -0.0898,-0.28906"
       fill-opacity="1"
       fill-rule="nonzero"
       id="path18299"
       style="fill:#008080" />
    <path
       fill="#100f0d"
       d="m 138.94531,152.57812 c -0.0273,-0.0234 -0.0937,-0.0273 -0.125,-0.0117 -0.0312,0.0156 -0.0547,0.0703 -0.0625,0.10937 -0.004,0.043 0.008,0.0937 0.0312,0.13281 0.0742,0.125 0.15625,0.2461 0.23438,0.3711 0.0234,-0.008 0.043,-0.0156 0.0664,-0.0195 0.0117,-0.0898 0.0352,-0.17579 0.0352,-0.26172 0,-0.13672 -0.0742,-0.24219 -0.17969,-0.32032"
       fill-opacity="1"
       fill-rule="nonzero"
       id="path18301"
       style="fill:#008080" />
    <path
       fill="#100f0d"
       d="m 195.67969,133.51562 c 0.0195,-0.20312 0.0781,-0.38671 0.21484,-0.52343 -0.0781,-0.11328 -0.16797,-0.13282 -0.27344,-0.0937 -0.0742,0.30078 -0.0664,0.35937 0.0586,0.61718"
       fill-opacity="1"
       fill-rule="nonzero"
       id="path18303"
       style="fill:#008080" />
    <path
       fill="#100f0d"
       d="m 138.4375,151.87891 c -0.0742,0.21093 0.14453,0.3125 0.20703,0.47656 0.0703,-0.14063 0.0234,-0.26563 -0.0391,-0.38281 -0.0273,-0.0586 -0.0664,-0.12891 -0.16797,-0.0937"
       fill-opacity="1"
       fill-rule="nonzero"
       id="path18305"
       style="fill:#008080" />
    <path
       fill="#100f0d"
       d="m 195.81641,134.24219 c -0.004,0 -0.008,0 -0.008,-0.004 -0.004,0.008 0,0.008 -0.004,0.0117 0.004,0 0.004,0 0.004,0.004 0,-0.004 0.004,-0.008 0.008,-0.0117"
       fill-opacity="1"
       fill-rule="nonzero"
       id="path18307"
       style="fill:#008080" />
    <path
       fill="#100f0d"
       d="m 195.81641,133.82812 c 0,-0.008 -0.0508,-0.0469 -0.0781,-0.0469 -0.0508,-0.004 -0.0859,0.0352 -0.0742,0.0859 0.0273,0.11718 0.0586,0.23437 0.0937,0.35156 0.004,0.0117 0.0312,0.0156 0.0508,0.0195 0.0781,-0.13281 -0.0391,-0.27344 0.008,-0.41016"
       fill-opacity="1"
       fill-rule="nonzero"
       id="path18309"
       style="fill:#008080" />
    <path
       fill="#100f0d"
       d="m 195.76953,135.49609 c 0.10156,-0.0469 0.10156,-0.0469 0.10938,-0.36718 -0.0508,0.0312 -0.11719,0.0469 -0.125,0.0781 -0.0273,0.0937 -0.043,0.19531 0.0156,0.28906"
       fill-opacity="1"
       fill-rule="nonzero"
       id="path18311"
       style="fill:#008080" />
    <path
       fill="#100f0d"
       d="m 154.14844,111.44531 c 0.0117,0.0586 0.0547,0.10938 0.11328,0.0977 0.0547,-0.0156 0.10156,-0.0664 0.18359,-0.12109 -0.0781,-0.043 -0.11719,-0.0781 -0.16406,-0.0859 -0.082,-0.0117 -0.14844,0.0469 -0.13281,0.10937"
       fill-opacity="1"
       fill-rule="nonzero"
       id="path18313"
       style="fill:#008080" />
    <path
       fill="#100f0d"
       d="m 195.26562,129.20703 c -0.11718,0.0312 -0.17968,0.0352 -0.22656,0.0664 -0.0703,0.0391 -0.0586,0.082 0.0352,0.17968 0.0547,-0.0664 0.10156,-0.13281 0.1914,-0.24609"
       fill-opacity="1"
       fill-rule="nonzero"
       id="path18315"
       style="fill:#008080" />
    <path
       fill="#100f0d"
       d="m 195.80859,134.25391 c -0.0352,0.043 -0.0703,0.0898 -0.10156,0.13281 0.0703,0.0664 0.12109,0.0508 0.16406,0.0117 0.0625,-0.0547 0.0391,-0.10547 -0.0625,-0.14453"
       fill-opacity="1"
       fill-rule="nonzero"
       id="path18317"
       style="fill:#008080" />
    <path
       fill="#100f0d"
       d="m 195.59375,132.78125 c 0.10547,-0.0742 0.10547,-0.0742 0.0117,-0.28516 -0.0625,0.125 -0.0625,0.20313 -0.0117,0.28516"
       fill-opacity="1"
       fill-rule="nonzero"
       id="path18319"
       style="fill:#008080" />
    <path
       fill="#100f0d"
       d="m 137.82031,150.30078 c 0.0156,0.0352 0.043,0.0664 0.0742,0.0898 0.0117,0.008 0.0703,-0.0352 0.0703,-0.0391 -0.0195,-0.0469 -0.0469,-0.0859 -0.0781,-0.15234 -0.0391,0.0547 -0.0742,0.0859 -0.0664,0.10156"
       fill-opacity="1"
       fill-rule="nonzero"
       id="path18321"
       style="fill:#008080" />
    <path
       fill="#100f0d"
       d="m 138.10156,150.70312 c -0.0117,0.0195 -0.0391,0.0391 -0.0352,0.0469 0.0156,0.0391 0.0391,0.0742 0.0625,0.10547 0.0156,-0.0156 0.0352,-0.0352 0.0703,-0.0703 -0.0391,-0.0352 -0.0664,-0.0547 -0.0977,-0.082"
       fill-opacity="1"
       fill-rule="nonzero"
       id="path18323"
       style="fill:#008080" />
    <path
       fill="#100f0d"
       d="m 136.71094,146.41406 c -0.0234,0 -0.043,0.0352 -0.0664,0.0586 0.0234,0.0195 0.043,0.0508 0.0664,0.0508 0.0234,0.004 0.0469,-0.0234 0.0859,-0.0508 -0.0391,-0.0273 -0.0625,-0.0586 -0.0859,-0.0586"
       fill-opacity="1"
       fill-rule="nonzero"
       id="path18325"
       style="fill:#008080" />
    <path
       fill="#100f0d"
       d="m 138.18359,151.26953 c -0.004,0.0234 0.0273,0.0508 0.0547,0.0898 0.0273,-0.0391 0.0586,-0.0664 0.0586,-0.0898 0,-0.0234 -0.0352,-0.0469 -0.0547,-0.0664 -0.0195,0.0195 -0.0547,0.043 -0.0586,0.0664"
       fill-opacity="1"
       fill-rule="nonzero"
       id="path18327"
       style="fill:#008080" />
    <path
       fill="#100f0d"
       d="m 137.86719,150.04297 c 0.004,-0.0547 -0.0273,-0.0781 -0.0742,-0.082 -0.0234,0 -0.0469,0.004 -0.0664,0.008 0.008,0.0156 0.0195,0.0312 0.0273,0.0508 0.0195,0.043 0.0469,0.0742 0.0977,0.0508 0.008,-0.004 0.0156,-0.0156 0.0156,-0.0273"
       fill-opacity="1"
       fill-rule="nonzero"
       id="path18329"
       style="fill:#008080" />
    <path
       fill="#100f0d"
       d="m 195.37891,130.72266 c -0.0352,-0.0508 -0.0586,-0.0898 -0.0937,-0.14063 -0.0234,0.0937 -0.0117,0.13672 0.0937,0.14063"
       fill-opacity="1"
       fill-rule="nonzero"
       id="path18331"
       style="fill:#008080" />
    <path
       fill="#100f0d"
       d="m 136.45312,145.44141 c -0.0234,0 -0.043,0.0352 -0.0859,0.0703 0.0469,0.0312 0.082,0.0508 0.11328,0.0703 0.0117,-0.0312 0.0352,-0.0586 0.0312,-0.0859 -0.004,-0.0234 -0.0391,-0.0547 -0.0586,-0.0547"
       fill-opacity="1"
       fill-rule="nonzero"
       id="path18333"
       style="fill:#008080" />
    <path
       fill="#100f0d"
       d="m 136.77734,146.79687 c 0.0156,0.008 0.043,-0.0273 0.0664,-0.043 -0.0234,-0.0234 -0.043,-0.043 -0.0625,-0.0625 -0.0273,0.0195 -0.0469,0.0273 -0.0664,0.0391 0.0195,0.0234 0.0391,0.0586 0.0625,0.0664"
       fill-opacity="1"
       fill-rule="nonzero"
       id="path18335"
       style="fill:#008080" />
    <path
       fill="#100f0d"
       d="m 195.51562,131.97656 c 0,-0.0195 0.0117,-0.0391 0.004,-0.0508 -0.0117,-0.0195 -0.0352,-0.0273 -0.0508,-0.0352 v -0.004 c 0,0.0195 0.004,0.043 0.0117,0.0586 0.008,0.0117 0.0234,0.0195 0.0352,0.0312"
       fill-opacity="1"
       fill-rule="nonzero"
       id="path18337"
       style="fill:#008080" />
    <path
       fill="#100f0d"
       d="m 195.48437,131.69141 c -0.008,0.0664 -0.0117,0.13281 -0.0156,0.19531 v 0.004 c 0.0586,-0.125 0.0586,-0.125 0.0156,-0.19921"
       fill-opacity="1"
       fill-rule="nonzero"
       id="path18339"
       style="fill:#008080" />
    <path
       fill="#100f0d"
       d="m 195.58594,132.22266 c -0.004,-0.0195 -0.0156,-0.0391 -0.0234,-0.0586 -0.008,0.008 -0.0273,0.0117 -0.0273,0.0195 0,0.0195 0.008,0.0391 0.008,0.0586 0.0156,-0.004 0.0312,-0.0117 0.043,-0.0195"
       fill-opacity="1"
       fill-rule="nonzero"
       id="path18341"
       style="fill:#008080" />
    <path
       fill="#100f0d"
       d="m 137.34375,148.58203 c 0,0.0195 0.0156,0.0352 0.0273,0.0508 0.0117,-0.0156 0.0234,-0.0312 0.0352,-0.0469 -0.0117,-0.0195 -0.0195,-0.0352 -0.0312,-0.0547 -0.0117,0.0156 -0.0312,0.0352 -0.0312,0.0508"
       fill-opacity="1"
       fill-rule="nonzero"
       id="path18343"
       style="fill:#008080" />
    <path
       fill="#100f0d"
       d="m 195.44922,131.38281 c -0.008,-0.0195 -0.0195,-0.0352 -0.0273,-0.0508 -0.008,0.008 -0.0234,0.0156 -0.0234,0.0234 0.004,0.0195 0.008,0.0391 0.0117,0.0586 0.0156,-0.0117 0.0273,-0.0234 0.0391,-0.0312"
       fill-opacity="1"
       fill-rule="nonzero"
       id="path18345"
       style="fill:#008080" />
    <path
       fill="#100f0d"
       d="m 195.375,130.37109 c -0.004,-0.0156 -0.0117,-0.0312 -0.0156,-0.0508 -0.0117,0.008 -0.0273,0.0156 -0.0391,0.0273 -0.004,0.004 0.004,0.0273 0.004,0.0273 0.0195,0.004 0.0352,0 0.0508,-0.004"
       fill-opacity="1"
       fill-rule="nonzero"
       id="path18347"
       style="fill:#008080" />
    <path
       fill="#100f0d"
       d="m 194.62109,127.34375 c -0.008,0.0117 -0.008,0.0234 -0.0117,0.0352 0.004,-0.004 0.0117,-0.004 0.0234,-0.0117 -0.004,-0.004 -0.008,-0.0117 -0.0117,-0.0234"
       fill-opacity="1"
       fill-rule="nonzero"
       id="path18349"
       style="fill:#008080" />
    <path
       fill="#100f0d"
       d="m 195.76172,134.87891 c -0.004,0.004 -0.0117,0.004 -0.0156,0.0117 -0.004,0.008 -0.004,0.0195 -0.004,0.0273 0.0156,-0.004 0.0234,-0.0117 0.0352,-0.0156 -0.004,-0.008 -0.008,-0.0156 -0.0156,-0.0234"
       fill-opacity="1"
       fill-rule="nonzero"
       id="path18351"
       style="fill:#008080" />
    <path
       fill="#100f0d"
       d="m 140.4375,155.00781 0.008,0.0195 0.008,-0.0117 z m 0,0"
       fill-opacity="1"
       fill-rule="nonzero"
       id="path18353"
       style="fill:#008080" />
    <path
       fill="#100f0d"
       d="m 195.78516,136.30469 0.0234,-0.0117 -0.0195,-0.0117 z m 0,0"
       fill-opacity="1"
       fill-rule="nonzero"
       id="path18355"
       style="fill:#008080" />
    <path
       fill="#100f0d"
       d="m 138.91016,152.40234 c -0.008,-0.0117 -0.0117,-0.0195 -0.0195,-0.0273 -0.004,0.008 -0.0195,0.0195 -0.0156,0.0195 0.004,0.0117 0.0156,0.0195 0.0234,0.0312 0.004,-0.008 0.008,-0.0156 0.0117,-0.0234"
       fill-opacity="1"
       fill-rule="nonzero"
       id="path18357"
       style="fill:#008080" />
    <path
       fill="#100f0d"
       d="m 195.95312,134.51172 0.0117,0.0273 0.0156,-0.0273 z m 0,0"
       fill-opacity="1"
       fill-rule="nonzero"
       id="path18359"
       style="fill:#008080" />
    <path
       fill="#100f0d"
       d="m 136.60937,145.94922 c -0.004,0.008 -0.004,0.0195 -0.004,0.0273 0.0117,-0.004 0.0273,-0.004 0.0391,-0.004 -0.004,-0.0117 -0.008,-0.0195 -0.0117,-0.0273 -0.008,0 -0.0195,0 -0.0234,0.004"
       fill-opacity="1"
       fill-rule="nonzero"
       id="path18361"
       style="fill:#008080" />
    <path
       fill="#100f0d"
       d="m 195.36719,130.92969 c 0.004,-0.008 -0.008,-0.0156 -0.008,-0.0234 -0.004,0.0156 -0.008,0.0273 -0.008,0.043 0.008,-0.004 0.0156,-0.0117 0.0156,-0.0195"
       fill-opacity="1"
       fill-rule="nonzero"
       id="path18363"
       style="fill:#008080" />
    <path
       fill="#100f0d"
       d="m 138.07422,150.51172 c 0,0 -0.0117,-0.004 -0.0195,-0.008 -0.004,0.0117 -0.008,0.0195 -0.008,0.0312 0,0.004 0.0156,0.004 0.0195,0.008 0.008,-0.0117 0.0117,-0.0195 0.008,-0.0312"
       fill-opacity="1"
       fill-rule="nonzero"
       id="path18365"
       style="fill:#008080" />
    <path
       fill="#100f0d"
       d="m 137.73437,149.875 c -0.004,0 -0.008,0 -0.008,0 0,0.0312 0,0.0586 0,0.0859 v 0.008 c 0,-0.004 0,-0.004 0,-0.008 0,-0.0273 0.008,-0.0547 0.008,-0.0859"
       fill-opacity="1"
       fill-rule="nonzero"
       id="path18367"
       style="fill:#008080" />
    <path
       fill="#100f0d"
       d="m 173.71094,166.20703 c -0.008,0.0508 -0.004,0.11719 -0.0156,0.18359 -0.0117,0.0781 -0.0352,0.14844 -0.0625,0.25391 0.1836,0.0742 0.3125,0.0117 0.41016,-0.0312 0.0937,-0.13672 0.16406,-0.23437 0.22265,-0.33984 0.0195,-0.043 -0.008,-0.10157 -0.0117,-0.17188 -0.19141,0.043 -0.37891,-0.0664 -0.54297,0.10547"
       fill-opacity="1"
       fill-rule="nonzero"
       id="path18369"
       style="fill:#008080" />
    <path
       fill="#100f0d"
       d="m 181.83984,161.46484 c -0.0664,0.043 -0.11718,0.10547 -0.17968,0.15235 -0.15235,0.10937 -0.31641,0.21093 -0.46875,0.33203 -0.10938,0.082 -0.19141,0.19531 -0.21875,0.36328 0.13671,0.0391 0.21484,-0.0234 0.29687,-0.0859 0.16016,-0.125 0.28906,-0.28515 0.46484,-0.39453 0.0898,-0.0586 0.15625,-0.16406 0.22266,-0.25781 0.0195,-0.0273 0,-0.082 0,-0.125 -0.0391,0.004 -0.0898,-0.008 -0.11719,0.0156"
       fill-opacity="1"
       fill-rule="nonzero"
       id="path18371"
       style="fill:#008080" />
    <path
       fill="#100f0d"
       d="m 167.39844,167.05469 c -0.11719,-0.0547 -0.28907,-0.043 -0.40235,0.0898 0.11719,0.14063 0.14453,0.17188 0.19922,0.16797 0.23828,-0.0117 0.47266,-0.0312 0.67969,-0.16406 0.008,-0.004 0.004,-0.0195 0.004,-0.0391 -0.0312,-0.008 -0.0625,-0.0234 -0.0937,-0.0195 -0.12891,0.0117 -0.2461,0.0312 -0.38672,-0.0352"
       fill-opacity="1"
       fill-rule="nonzero"
       id="path18373"
       style="fill:#008080" />
    <path
       fill="#100f0d"
       d="m 140.80859,148.93359 c -0.0156,-0.0273 -0.0391,-0.0547 -0.0781,-0.11718 -0.043,0.0898 -0.0859,0.13281 -0.0859,0.17968 -0.004,0.1875 0.14063,0.26953 0.28125,0.35938 0.004,0.14062 -0.10156,0.26562 0.0508,0.35156 0.0547,-0.10547 0.13281,-0.21875 0.0508,-0.32031 -0.11328,-0.13672 -0.15234,-0.30078 -0.21875,-0.45313"
       fill-opacity="1"
       fill-rule="nonzero"
       id="path18375"
       style="fill:#008080" />
    <path
       fill="#100f0d"
       d="m 168.93359,166.94531 c -0.0703,0 -0.125,0.0469 -0.14062,0.1211 -0.0117,0.0703 0.0547,0.14843 0.14844,0.14843 0.0742,0 0.14843,-0.0273 0.21875,-0.0508 0.0273,-0.008 0.0352,-0.0547 0.0508,-0.0859 -0.0195,-0.0312 -0.0312,-0.0781 -0.0547,-0.082 -0.0742,-0.0273 -0.14844,-0.0508 -0.22266,-0.0508"
       fill-opacity="1"
       fill-rule="nonzero"
       id="path18377"
       style="fill:#008080" />
    <path
       fill="#100f0d"
       d="m 180.33984,162.79687 c 0.15235,0 0.23438,0 0.30469,0 0.1875,-0.21875 0.1875,-0.21875 0.14844,-0.3789 -0.17969,0.0586 -0.28125,0.20703 -0.45313,0.3789"
       fill-opacity="1"
       fill-rule="nonzero"
       id="path18379"
       style="fill:#008080" />
    <path
       fill="#100f0d"
       d="m 183.15625,161.95312 c 0.40625,-0.0117 0.44922,-0.0508 0.41406,-0.3164 -0.19531,0.008 -0.29297,0.13672 -0.41406,0.3164"
       fill-opacity="1"
       fill-rule="nonzero"
       id="path18381"
       style="fill:#008080" />
    <path
       fill="#100f0d"
       d="m 168.39844,167.04297 c -0.0625,-0.008 -0.13282,0.008 -0.19532,0.0195 -0.0586,0.0117 -0.11718,0.0352 -0.0977,0.10937 0.0117,0.0312 0.0625,0.0586 0.0977,0.0742 0.0312,0.0156 0.0664,0.0156 0.1211,0.0195 0.0234,-0.004 0.0742,-0.008 0.10547,-0.0352 0.0312,-0.0234 0.0664,-0.0742 0.0586,-0.10547 -0.008,-0.0352 -0.0547,-0.0781 -0.0898,-0.082"
       fill-opacity="1"
       fill-rule="nonzero"
       id="path18383"
       style="fill:#008080" />
    <path
       fill="#100f0d"
       d="m 141.45312,150.84766 c -0.10937,0.16406 -0.10937,0.26171 0.008,0.34765 0.0273,0.0195 0.0859,0.0195 0.125,0.008 0.0195,-0.004 0.0391,-0.0547 0.0352,-0.0859 -0.008,-0.11328 -0.0508,-0.21875 -0.16797,-0.26953"
       fill-opacity="1"
       fill-rule="nonzero"
       id="path18385"
       style="fill:#008080" />
    <path
       fill="#100f0d"
       d="m 140.49609,148.28516 c 0.0156,0.16796 -0.0195,0.3125 0.10547,0.46093 0.0352,-0.0742 0.0898,-0.13281 0.082,-0.17968 -0.0195,-0.10157 -0.0469,-0.21094 -0.1875,-0.28125"
       fill-opacity="1"
       fill-rule="nonzero"
       id="path18387"
       style="fill:#008080" />
    <path
       fill="#100f0d"
       d="m 174.41797,166.17187 c 0,0.0195 0,0.0391 0.004,0.0586 0.0937,-0.004 0.19141,-0.004 0.28907,-0.0117 0.0859,-0.0117 0.0977,-0.0508 0.0352,-0.18359 -0.10937,0.043 -0.21875,0.0898 -0.32812,0.13671"
       fill-opacity="1"
       fill-rule="nonzero"
       id="path18389"
       style="fill:#008080" />
    <path
       fill="#100f0d"
       d="m 141.84766,151.61719 c 0.0234,0.13672 0.15234,0.17578 0.23046,0.26562 -0.0352,-0.23828 -0.0352,-0.23828 -0.23046,-0.26562"
       fill-opacity="1"
       fill-rule="nonzero"
       id="path18391"
       style="fill:#008080" />
    <path
       fill="#100f0d"
       d="m 175.63672,165.74219 c 0.0273,0.15234 0.11328,0.13281 0.18359,0.11328 0.0586,-0.0156 0.0898,-0.0547 0.043,-0.14063 -0.0625,0.008 -0.13281,0.0117 -0.22656,0.0273"
       fill-opacity="1"
       fill-rule="nonzero"
       id="path18393"
       style="fill:#008080" />
    <path
       fill="#100f0d"
       d="m 143.46094,154.67969 c 0.0195,0.0273 0.0859,0.0508 0.10156,0.0391 0.0273,-0.0234 0.0586,-0.0859 0.043,-0.10938 -0.0195,-0.0391 -0.0742,-0.0586 -0.17578,-0.13281 0.0156,0.125 0.0117,0.17578 0.0312,0.20313"
       fill-opacity="1"
       fill-rule="nonzero"
       id="path18395"
       style="fill:#008080" />
    <path
       fill="#100f0d"
       d="m 141.76562,151.12891 c -0.0625,0.11718 -0.0312,0.20312 0.008,0.29296 0.0234,-0.008 0.0586,-0.008 0.0625,-0.0195 0.043,-0.10156 0.004,-0.17968 -0.0703,-0.27343"
       fill-opacity="1"
       fill-rule="nonzero"
       id="path18397"
       style="fill:#008080" />
    <path
       fill="#100f0d"
       d="m 182.63281,162.37109 c -0.0703,-0.008 -0.0937,0.0469 -0.0937,0.10547 0,0.0195 0.0391,0.0664 0.0508,0.0625 0.043,-0.0117 0.082,-0.0391 0.14844,-0.0742 -0.0508,-0.0469 -0.0781,-0.0937 -0.10547,-0.0937"
       fill-opacity="1"
       fill-rule="nonzero"
       id="path18399"
       style="fill:#008080" />
    <path
       fill="#100f0d"
       d="m 142.71875,153.03906 c -0.0156,0.0508 -0.0391,0.0977 -0.043,0.15235 -0.004,0.0195 0.0312,0.0391 0.0469,0.0625 0.0117,-0.0156 0.0352,-0.0312 0.0352,-0.0469 0.004,-0.0547 -0.004,-0.10937 -0.004,-0.16016 -0.0117,0 -0.0234,-0.004 -0.0352,-0.008"
       fill-opacity="1"
       fill-rule="nonzero"
       id="path18401"
       style="fill:#008080" />
    <path
       fill="#100f0d"
       d="m 140.46094,147.94531 c 0.008,0 0.0156,-0.0195 0.0117,-0.0273 -0.0273,-0.0977 -0.11329,-0.0469 -0.17188,-0.0664 0.0391,0.0586 0.0664,0.125 0.16016,0.0937"
       fill-opacity="1"
       fill-rule="nonzero"
       id="path18403"
       style="fill:#008080" />
    <path
       fill="#100f0d"
       d="m 140.29297,147.83984 c 0,0 -0.0117,0.0117 -0.0117,0.0117 0.008,0 0.0117,0 0.0195,0 -0.004,-0.004 -0.008,-0.008 -0.008,-0.0117"
       fill-opacity="1"
       fill-rule="nonzero"
       id="path18405"
       style="fill:#008080" />
    <path
       fill="#100f0d"
       d="m 139.59375,145.09766 c 0,0.008 0.0234,-0.004 0.0273,-0.0117 0.008,-0.0195 0.0195,-0.043 0.0117,-0.0586 -0.0117,-0.043 -0.0352,-0.0742 -0.0547,-0.11328 -0.0156,0.0391 -0.0352,0.0781 -0.043,0.1211 0,0.0195 0.0352,0.043 0.0586,0.0625"
       fill-opacity="1"
       fill-rule="nonzero"
       id="path18407"
       style="fill:#008080" />
    <path
       fill="#100f0d"
       d="m 142.77734,153.55469 c 0.0156,0.0195 0.0312,0.043 0.043,0.0625 0.0117,-0.0156 0.0273,-0.0273 0.0391,-0.043 -0.0117,-0.0156 -0.0195,-0.043 -0.0312,-0.043 -0.0156,-0.004 -0.0352,0.0156 -0.0508,0.0234"
       fill-opacity="1"
       fill-rule="nonzero"
       id="path18409"
       style="fill:#008080" />
    <path
       fill="#100f0d"
       d="m 143.64062,154.94922 c 0.0273,-0.0117 0.0469,-0.0391 0.0625,-0.0586 0.004,-0.008 -0.0273,-0.0508 -0.0312,-0.0469 -0.0273,0.0117 -0.0547,0.0273 -0.0742,0.0469 -0.0117,0.0117 -0.008,0.0391 -0.0117,0.0586 0.0195,0 0.0391,0.008 0.0547,0"
       fill-opacity="1"
       fill-rule="nonzero"
       id="path18411"
       style="fill:#008080" />
    <path
       fill="#100f0d"
       d="m 143.57422,154.94531 c 0,0 0.0117,0.0117 0.0117,0.0117 0,-0.004 0,-0.008 0,-0.008 -0.004,0 -0.008,-0.004 -0.0117,-0.004"
       fill-opacity="1"
       fill-rule="nonzero"
       id="path18413"
       style="fill:#008080" />
    <path
       fill="#100f0d"
       d="m 175.17187,165.67578 c -0.004,0.0117 0.0234,0.0508 0.0273,0.0469 0.0312,-0.008 0.0664,-0.0195 0.0781,-0.0391 0.008,-0.0195 -0.0195,-0.0508 -0.0391,-0.0937 -0.0312,0.0391 -0.0586,0.0586 -0.0664,0.0859"
       fill-opacity="1"
       fill-rule="nonzero"
       id="path18415"
       style="fill:#008080" />
    <path
       fill="#100f0d"
       d="m 141.26953,150.08594 c 0.008,0.0156 0.0156,0.0195 0.0273,0.0352 0.004,-0.0117 0.004,-0.0195 0.008,-0.0273 -0.004,-0.0117 -0.0117,-0.0195 -0.0156,-0.0273 -0.008,0.008 -0.0195,0.0195 -0.0195,0.0195"
       fill-opacity="1"
       fill-rule="nonzero"
       id="path18417"
       style="fill:#008080" />
    <path
       fill="#100f0d"
       d="m 144.26562,155.76172 c 0.008,0.0156 0.0195,0.0312 0.0312,0.0469 0.008,-0.0117 0.0195,-0.0234 0.0273,-0.0352 -0.0117,-0.0117 -0.0273,-0.0234 -0.043,-0.0312 0,0 -0.0156,0.0156 -0.0156,0.0195"
       fill-opacity="1"
       fill-rule="nonzero"
       id="path18419"
       style="fill:#008080" />
    <path
       fill="#100f0d"
       d="m 143.22266,154.08203 c 0.008,0.0117 0.0195,0.0273 0.0312,0.043 0.0156,-0.008 0.0469,-0.0117 0.0508,-0.0234 0.004,-0.0195 -0.008,-0.043 -0.0156,-0.0625 -0.0234,0.0156 -0.043,0.0273 -0.0664,0.043"
       fill-opacity="1"
       fill-rule="nonzero"
       id="path18421"
       style="fill:#008080" />
    <path
       fill="#100f0d"
       d="m 172.77734,166.15234 c 0.008,0.0156 0.0117,0.0273 0.0195,0.0391 0.008,-0.004 0.0117,-0.0117 0.0195,-0.0195 -0.004,-0.008 -0.008,-0.0195 -0.0117,-0.0234 -0.008,-0.004 -0.0195,0.004 -0.0273,0.004"
       fill-opacity="1"
       fill-rule="nonzero"
       id="path18423"
       style="fill:#008080" />
  </g>
</svg>
