<?xml version="1.0" encoding="UTF-8" standalone="no"?>
<!-- Created with Inkscape (http://www.inkscape.org/) -->

<svg
   version="1.1"
   id="svg1018"
   width="148.8"
   height="25.6"
   viewBox="0 0 148.8 25.6"
   sodipodi:docname="milano.svg"
   inkscape:version="1.1.1 (3bf5ae0d25, 2021-09-20)"
   xmlns:inkscape="http://www.inkscape.org/namespaces/inkscape"
   xmlns:sodipodi="http://sodipodi.sourceforge.net/DTD/sodipodi-0.dtd"
   xmlns="http://www.w3.org/2000/svg"
   xmlns:svg="http://www.w3.org/2000/svg">
  <defs
     id="defs1022" />
  <sodipodi:namedview
     id="namedview1020"
     pagecolor="#ffffff"
     bordercolor="#666666"
     borderopacity="1.0"
     inkscape:pageshadow="2"
     inkscape:pageopacity="0.0"
     inkscape:pagecheckerboard="0"
     showgrid="false"
     inkscape:zoom="7.1774192"
     inkscape:cx="46.256181"
     inkscape:cy="12.748315"
     inkscape:window-width="1366"
     inkscape:window-height="745"
     inkscape:window-x="-8"
     inkscape:window-y="-8"
     inkscape:window-maximized="1"
     inkscape:current-layer="g1024" />
  <g
     inkscape:groupmode="layer"
     inkscape:label="Image"
     id="g1024">
    <path
       style="fill:#ffff00;stroke-width:0.32"
       d="M 5.5586517,21.676567 0.75865169,18.242269 0.66268239,16.411472 c -0.0527831,-1.006938 -0.0126455,-1.830797 0.0891946,-1.830797 0.1018401,0 2.34102631,1.52438 4.97596931,3.387512 l 4.7908057,3.387511 4.790804,-3.387511 c 2.634943,-1.863132 4.874129,-3.387512 4.97597,-3.387512 0.10184,0 0.141977,0.822434 0.08919,1.827632 l -0.09596,1.827631 -4.8,3.434512 c -2.64,1.888981 -4.871999,3.435839 -4.959999,3.437463 -0.088,0.0016 -2.3200003,-1.542483 -4.9600003,-3.431346 z m 9.9399593,-0.864243 c 3.86754,-2.746034 4.30004,-3.148596 4.30004,-4.002384 0,-0.522095 -0.08249,-0.949265 -0.183317,-0.949265 -0.100825,0 -2.110022,1.368 -4.464882,3.04 -2.35486,1.672 -4.43917,3.04 -4.6318,3.04 -0.19263,0 -2.2769414,-1.368 -4.6318016,-3.04 -2.3548598,-1.672 -4.3640566,-3.04 -4.4648812,-3.04 -0.1008246,0 -0.1833175,0.427975 -0.1833175,0.951056 0,0.858352 0.4419205,1.265171 4.5337306,4.173618 2.5370003,1.803292 4.7302577,3.147148 4.9799607,3.051328 0.245426,-0.09418 2.381247,-1.545138 4.746268,-3.224353 z m 67.66004,0.146673 c -0.44,-0.184262 -1.177174,-0.69567 -1.63817,-1.136463 -0.716128,-0.68475 -0.866899,-0.726567 -1.0355,-0.287202 -0.390685,1.018108 -2.252068,1.445343 -6.297088,1.445343 -4.300048,0 -5.109242,-0.241125 -5.109242,-1.522461 v -0.859943 l -0.521821,0.745005 c -0.895705,1.278798 -2.324326,1.637399 -6.523181,1.637399 -3.769104,0 -3.885139,-0.02113 -4.650278,-0.846727 -0.431597,-0.4657 -0.78472,-0.674352 -0.78472,-0.463672 0,0.835608 -2.173418,1.310399 -5.998522,1.310399 -5.291049,0 -5.878092,-0.530067 -4.747504,-4.286724 0.523981,-1.741059 0.66976,-1.795827 -2.533974,0.951992 -3.164406,2.714088 -4.246019,3.334732 -5.811517,3.334732 -1.9756,0 -2.314307,-0.80277 -1.416489,-3.357224 0.362947,-1.03265 0.599251,-1.938197 0.52512,-2.012328 -0.07413,-0.07413 -1.521658,1.031296 -3.21673,2.456504 -1.695071,1.425207 -3.404292,2.67219 -3.798268,2.771072 -0.393977,0.09888 -1.441485,0.135278 -2.327795,0.08088 l -1.611474,-0.0989 1.804793,-5.12 1.804792,-5.12 2.783784,-0.09246 c 1.53108,-0.05085 2.783784,-0.04007 2.783784,0.02395 0,0.06402 -0.354534,1.158781 -0.787853,2.432791 l -0.787853,2.316382 1.987853,-1.6371 c 3.749165,-3.087631 4.65464,-3.559789 6.627853,-3.456074 1.560698,0.08203 1.771824,0.175919 1.864429,0.829093 0.05744,0.405122 -0.122144,1.401541 -0.399066,2.214266 -0.276925,0.812725 -0.450934,1.530244 -0.386691,1.594486 0.06424,0.06424 1.166467,-0.760189 2.449389,-1.832071 2.927321,-2.445781 3.757949,-2.873267 5.582909,-2.873267 1.241558,0 1.516739,0.11849 1.819772,0.78358 0.298189,0.654448 0.16522,1.317591 -0.806857,4.023984 -0.640138,1.782222 -1.163885,3.301611 -1.163885,3.37642 0,0.07481 1.44,0.136016 3.2,0.136016 1.772378,0 3.2,-0.133523 3.2,-0.29929 0,-0.164609 0.590982,-1.964609 1.313296,-4 l 1.313296,-3.70071 h 2.812691 2.812688 l -1.218451,3.44 c -0.670147,1.892 -1.320253,3.69723 -1.444682,4.011622 -0.209641,0.529703 0.01366,0.564903 3.045124,0.48 l 3.271356,-0.09162 2.04448,-5.76 c 1.124464,-3.1680004 2.420375,-6.8040004 2.879805,-8.0800004 l 0.835328,-2.32 h 2.687533 c 1.478144,0 2.687536,0.05473 2.687536,0.121635 0,0.0669 -0.635229,1.902899 -1.411619,4.08 -0.776394,2.1771 -2.066269,5.7943654 -2.866391,8.0383654 l -1.454771,4.08 h 3.026391 3.02639 v -1.002874 c 0,-3.01019 1.962026,-5.644693 4.840448,-6.499492 1.218877,-0.361968 3.108656,-0.497634 6.931869,-0.497634 4.87776,0 5.240048,0.04031 5.032425,0.56 -0.123049,0.308 -0.782169,2.108 -1.464707,4 l -1.240979,3.44 h 3.273731 3.273732 l 1.39539,-4 1.3954,-4 h 2.82701 2.827 l -0.79825,2.120746 c -0.43903,1.16641 -0.72826,2.190734 -0.64271,2.276275 0.0855,0.08554 1.2072,-0.707593 2.49258,-1.762521 2.85428,-2.342534 4.01776,-2.9545 5.61717,-2.9545 2.346,0 2.49071,0.852343 0.89371,5.264124 l -1.10618,3.055876 h 3.00038 3.00039 l -0.30788,-1.115036 c -0.71678,-2.595968 1.20771,-5.486862 4.25509,-6.391836 1.34836,-0.400421 3.63487,-0.493128 12.16246,-0.493128 7.09235,0 10.50192,0.108614 10.50192,0.334546 0,0.184 -0.35346,0.688 -0.78546,1.12 -0.7759,0.775904 -0.85566,0.785454 -6.56,0.785454 -3.176,0 -5.77454,0.1152 -5.77454,0.256 0,0.1408 0.17169,0.427692 0.38154,0.637539 0.20985,0.209846 0.38154,1.076841 0.38154,1.926657 0,2.08994 -0.95132,3.55221 -3.05634,4.697907 -1.46575,0.797759 -2.00333,0.908399 -4.40804,0.90721 -2.86851,-0.0014 -5.12007,-0.677326 -6.06368,-1.820293 -0.41299,-0.500241 -0.47926,-0.490047 -0.92182,0.141798 -0.84956,1.212906 -2.33445,1.573182 -6.48396,1.573182 -2.12922,0 -4.14985,-0.149067 -4.49028,-0.331259 -0.79121,-0.423444 -0.78731,-1.458825 0.0134,-3.566235 0.34783,-0.915398 0.59638,-1.70039 0.55234,-1.744428 -0.044,-0.04404 -1.37221,1.013598 -2.95149,2.350301 -3.29594,2.789676 -4.29698,3.291621 -6.56454,3.291621 -1.50835,0 -1.61581,-0.05049 -1.42009,-0.667153 0.2094,-0.659771 0.20184,-0.660656 -0.683553,-0.08 -0.73304,0.480742 -1.692557,0.607148 -5.294397,0.697483 -4.285776,0.107487 -4.418864,0.09057 -5.166253,-0.656822 l -0.767149,-0.767151 -0.953613,0.735402 c -1.095755,0.845048 -3.412104,1.207164 -4.583614,0.716563 z m 47.732939,-5.083849 c 0.49888,-1.488039 0.90706,-2.820039 0.90706,-2.96 0,-0.13996 -0.7281,-0.254473 -1.61799,-0.254473 -1.61294,0 -1.62001,0.0046 -2.2631,1.458368 -1.00336,2.268266 -1.13949,3.668862 -0.40857,4.203713 0.33531,0.245362 1.02948,0.40377 1.5426,0.352016 0.86528,-0.08727 0.99873,-0.290316 1.84,-2.799624 z M 90.107646,15.703604 c 0.522608,-1.49439 0.876877,-2.79039 0.787267,-2.88 -0.08961,-0.08961 -0.852832,-0.162929 -1.696044,-0.162929 h -1.533117 l -0.686797,2.306132 -0.686794,2.306133 0.708695,0.573867 c 0.389782,0.315628 1.034473,0.573868 1.432646,0.573868 0.620483,0 0.859747,-0.388313 1.674144,-2.717071 z M 5.6463125,16.426229 0.94448228,13.140675 0.93156699,11.581493 c -0.009975,-1.204195 0.078155,-1.487023 0.38708471,-1.242243 1.1619264,0.920653 8.6837903,6.229014 8.9963883,6.348969 0.201222,0.07722 2.453351,-1.357168 5.004734,-3.187521 l 4.638877,-3.327913 0.101323,1.117597 c 0.05573,0.614678 0.03337,1.294665 -0.04967,1.511083 -0.149026,0.388355 -8.43879,6.440867 -9.24584,6.750561 -0.228975,0.08787 -2.5321431,-1.318742 -5.1181495,-3.125797 z M 5.4575259,11.807758 0.59865169,8.3715526 v -1.874325 c 0,-1.416099 0.0977899,-1.814746 0.4,-1.630625 0.22000001,0.134035 2.36815571,1.654534 4.77367941,3.378886 2.4055235,1.724352 4.5302369,3.1351864 4.7215849,3.1351864 0.191348,0 2.327191,-1.4095304 4.746319,-3.1322904 2.419129,-1.722759 4.578416,-3.243257 4.798416,-3.378885 0.302501,-0.186489 0.4,0.209264 0.4,1.623631 v 1.870226 l -4.594477,3.2612344 c -2.526963,1.793678 -4.804468,3.341814 -5.061125,3.440303 -0.27678,0.10621 -2.4436107,-1.219042 -5.3255231,-3.257136 z m 9.8254161,-0.587083 c 4.224378,-3.0023984 4.502817,-3.2652034 4.509057,-4.2559014 0.0079,-1.246759 0.484207,-1.476469 -5.059765,2.439958 L 10.508096,12.38879 6.5083669,9.5647316 C 4.308516,8.0114996 2.2228913,6.5431106 1.8736449,6.3016436 c -0.5948776,-0.411296 -0.6344781,-0.370864 -0.6268403,0.64 0.0077,1.019245 0.2603558,1.259794 4.5600001,4.3415144 2.5035158,1.794365 4.6467713,3.234365 4.7627893,3.2 0.116018,-0.03437 2.237024,-1.502483 4.713348,-3.262483 z M 60.886651,6.4526746 c -0.905942,-0.905942 -1.088,-1.322401 -1.088,-2.488799 0,-1.671355 0.55344,-2.557353 2.037286,-3.26148504 2.858848,-1.356612 5.962714,0.40098704 5.962714,3.37645504 0,2.077332 -1.73415,3.461829 -4.336109,3.461829 -1.265446,0 -1.650553,-0.162661 -2.575891,-1.088 z"
       id="path1085" />
  </g>
</svg>
