<?xml version="1.0" encoding="UTF-8" standalone="no"?>
<!-- Created with Inkscape (http://www.inkscape.org/) -->

<svg
   version="1.1"
   id="svg1190"
   width="76.160004"
   height="22.4"
   viewBox="0 0 76.160004 22.4"
   sodipodi:docname="nixe.svg"
   inkscape:version="1.1.1 (3bf5ae0d25, 2021-09-20)"
   xmlns:inkscape="http://www.inkscape.org/namespaces/inkscape"
   xmlns:sodipodi="http://sodipodi.sourceforge.net/DTD/sodipodi-0.dtd"
   xmlns="http://www.w3.org/2000/svg"
   xmlns:svg="http://www.w3.org/2000/svg">
  <defs
     id="defs1194" />
  <sodipodi:namedview
     id="namedview1192"
     pagecolor="#ffffff"
     bordercolor="#666666"
     borderopacity="1.0"
     inkscape:pageshadow="2"
     inkscape:pageopacity="0.0"
     inkscape:pagecheckerboard="0"
     showgrid="false"
     inkscape:zoom="14.023109"
     inkscape:cx="30.877604"
     inkscape:cy="11.231461"
     inkscape:window-width="1366"
     inkscape:window-height="745"
     inkscape:window-x="-8"
     inkscape:window-y="-8"
     inkscape:window-maximized="1"
     inkscape:current-layer="g1196" />
  <g
     inkscape:groupmode="layer"
     inkscape:label="Image"
     id="g1196">
    <path
       style="fill:#0000ff;stroke-width:0.32"
       d="m 65.529817,21.567764 c -1.902368,-0.677688 -2.816375,-1.473232 -3.698503,-3.219152 -0.68608,-1.357896 -0.8,-2.016267 -0.8,-4.623369 0,-2.35453 0.134711,-3.292542 0.597431,-4.16 1.483433,-2.780981 3.474387,-3.941342 6.76257,-3.941342 4.482454,0 6.79199,2.388029 7.293469,7.541342 l 0.147917,1.52 h -5.400695 c -5.24465,0 -5.400692,0.0191 -5.400692,0.661037 0,2.710952 3.723485,4.284569 5.629092,2.378963 0.688592,-0.688594 1.088534,-0.8 2.871958,-0.8 h 2.071959 l -0.617197,1.2 c -1.727427,3.358591 -5.667187,4.792689 -9.457309,3.442521 z m 5.901498,-10.064677 c 0,-1.105962 -1.324282,-2.281762 -2.791565,-2.478566 -1.229696,-0.164937 -1.451597,-0.08012 -2.479501,0.947787 -1.888791,1.888792 -1.634695,2.152935 2.071066,2.152935 2.956073,0 3.2,-0.04743 3.2,-0.622156 z M 7.7513113,21.476791 C 5.2642878,20.67338 5.8467112,17.372772 8.4313958,17.622736 9.9189317,17.766595 10.688259,19.102642 9.9913117,20.331753 9.4753949,21.241604 8.52584,21.726995 7.7513113,21.476791 Z M 23.111312,13.725243 v -8 h 1.92 1.92 V 6.908017 8.09079 l 1.04,-1.005076 c 2.50424,-2.420148 7.123207,-1.911076 8.590455,0.946781 0.53809,1.048074 0.609546,1.920244 0.609546,7.44 v 6.252748 h -2.08 -2.08 v -5.76 c 0,-5.439342 -0.03771,-5.79771 -0.677402,-6.437401 -0.965787,-0.965787 -3.322651,-0.692971 -4.35204,0.503765 -0.698585,0.812153 -0.730559,1.086632 -0.730559,6.27148 v 5.422156 h -2.08 -2.08 z m 16.320001,0 v -8 h 1.92 1.92 v 8 8 h -1.92 -1.92 z m 5.44,7.843053 c 0,-0.08632 1.08,-1.820384 2.4,-3.853474 1.320001,-2.033091 2.400001,-3.852908 2.400001,-4.044038 0,-0.19113 -1.08,-1.989892 -2.400001,-3.997248 -1.32,-2.007356 -2.4,-3.716913 -2.4,-3.799015 0,-0.0821 1.069431,-0.149278 2.376516,-0.149278 h 2.376515 l 1.037965,1.84 c 1.889626,3.34973 1.653107,3.306132 3.156902,0.581923 l 1.336932,-2.421923 h 2.217587 c 1.21967,0 2.217584,0.09403 2.217584,0.208955 0,0.114925 -1.097971,1.920918 -2.439939,4.013317 l -2.439936,3.804361 2.064272,3.106683 c 1.13535,1.708676 2.321885,3.502684 2.636742,3.986684 l 0.572468,0.88 -2.516804,-0.0074 -2.516803,-0.0074 -1.255757,-2.232593 c -0.690669,-1.227926 -1.338669,-2.232247 -1.44,-2.231824 -0.101334,4.16e-4 -0.751014,1.008423 -1.443738,2.24 l -1.259494,2.239217 h -2.340506 c -1.287277,0 -2.340506,-0.07063 -2.340506,-0.156947 z M 0.88090698,13.415847 C 0.08982541,12.541711 0.15770078,11.168303 1.0267618,10.46458 c 1.4062093,-1.138679 3.2045493,-0.314181 3.2045493,1.469212 0,1.898715 -2.1233197,2.837967 -3.35040412,1.482055 z M 12.999217,13.800343 c -0.425083,-0.283836 -1.087905,-1.495424 -1.087905,-1.988608 0,-0.600105 1.532222,-1.926492 2.225454,-1.926492 1.711608,0 2.610387,2.690332 1.223344,3.661855 -0.756838,0.530109 -1.781622,0.640035 -2.360893,0.253245 z M 6.9944661,6.022018 C 5.435844,4.796006 6.2034479,2.525243 8.1765084,2.525243 c 1.0145339,0 2.1348036,1.015182 2.1348036,1.934546 0,0.745978 -1.3444205,2.225454 -2.0223005,2.225454 -0.2482647,0 -0.8308103,-0.298451 -1.2945454,-0.663225 z M 39.431313,2.045243 V 0.28524303 h 1.92 1.92 v 1.75999997 1.76 h -1.92 -1.92 z"
       id="path1257" />
  </g>
</svg>
